#N canvas 783 28 648 641 10;
#X obj 65 69 gemhead;
#X obj 65 250 separator;
#X obj 65 220 rotateXYZ;
#X obj 65 336 separator;
#X obj 99 138 tgl 15 0 empty empty empty 17 7 0 10 -262144 -1 -1 1
1;
#X obj 99 184 f;
#N canvas 819 201 450 300 gemwin 0;
#X obj 97 30 inlet;
#X obj 288 51 gemhead;
#X obj 288 78 world_light;
#X obj 97 56 route create;
#X obj 97 107 outlet;
#X msg 97 79 set destroy;
#X msg 185 79 set create;
#X msg 166 121 create \, 1;
#X msg 243 122 destroy;
#X obj 166 219 gemwin;
#X obj 243 153 loadbang;
#X msg 241 178 lighting 1;
#X connect 0 0 3 0;
#X connect 1 0 2 0;
#X connect 3 0 5 0;
#X connect 3 0 7 0;
#X connect 3 1 6 0;
#X connect 3 1 8 0;
#X connect 5 0 4 0;
#X connect 6 0 4 0;
#X connect 7 0 9 0;
#X connect 8 0 9 0;
#X connect 10 0 11 0;
#X connect 11 0 9 0;
#X restore 297 108 pd gemwin;
#X msg 255 66 destroy;
#X obj 65 547 cube;
#X floatatom 237 490 5 0 0 0 - - -;
#X msg 77 504 draw line;
#X obj 65 360 repeat 15;
#X obj 65 274 repeat 15;
#X obj 99 158 metro 33;
#X obj 65 402 translateXYZ 0 -1 0;
#X text 192 402 0 -3 0;
#X obj 139 185 + 1;
#X text 172 308 0 36 0;
#X obj 65 306 rotateXYZ 0 3 0;
#X text 197 96 0 -5 0;
#X obj 65 98 translateXYZ 0 -1 0;
#X obj 227 457 hsl 128 15 -20 20 0 0 empty empty empty -2 -8 0 10 -262144
-1 -1 3300 1;
#X obj 318 393 bng 15 250 50 0 empty empty empty 17 7 0 10 -262144
-1 -1;
#X connect 0 0 20 0;
#X connect 1 0 12 0;
#X connect 2 0 1 0;
#X connect 3 0 11 0;
#X connect 4 0 13 0;
#X connect 5 0 2 2;
#X connect 5 0 16 0;
#X connect 6 0 7 0;
#X connect 7 0 6 0;
#X connect 9 0 8 1;
#X connect 10 0 8 0;
#X connect 11 0 14 0;
#X connect 12 0 18 0;
#X connect 13 0 5 0;
#X connect 14 0 8 0;
#X connect 16 0 5 1;
#X connect 18 0 3 0;
#X connect 20 0 2 0;
#X connect 21 0 9 0;
