#N canvas 1019 23 1015 942 10;
#X floatatom 25 129 3 0 0 0 - - -;
#X obj 45 150 bng 20 250 50 0 empty empty empty 17 7 0 10 -262144 -1
-1;
#X obj 59 129 outlet;
#X floatatom 34 -126 3 0 0 0 - - -;
#X obj 55 -102 bng 20 250 50 0 empty empty empty 17 7 0 10 -262144
-1 -1;
#X obj 70 -122 outlet;
#X floatatom 19 405 3 0 0 0 - - -;
#X obj 28 430 bng 20 250 50 0 empty empty empty 17 7 0 10 -262144 -1
-1;
#X obj 55 411 outlet;
#X floatatom 14 837 3 0 0 0 - - -;
#X obj 23 859 bng 20 250 50 0 empty empty empty 17 7 0 10 -262144 -1
-1;
#X obj 50 843 outlet;
#X floatatom 147 128 3 0 0 0 - - -;
#X obj 168 149 bng 20 250 50 0 empty empty empty 17 7 0 10 -262144
-1 -1;
#X obj 181 128 outlet;
#X floatatom 240 129 3 0 0 0 - - -;
#X obj 260 151 bng 20 250 50 0 empty empty empty 17 7 0 10 -262144
-1 -1;
#X obj 271 129 outlet;
#X obj 19 380 ctlin 18 1;
#X obj 14 812 ctlin 19 1;
#X floatatom 335 127 3 0 0 0 - - -;
#X obj 347 148 bng 20 250 50 0 empty empty empty 17 7 0 10 -262144
-1 -1;
#X obj 363 127 outlet;
#X floatatom 477 127 3 0 0 0 - - -;
#X obj 496 150 bng 20 250 50 0 empty empty empty 17 7 0 10 -262144
-1 -1;
#X obj 511 126 outlet;
#X floatatom 578 120 3 0 0 0 - - -;
#X obj 598 145 bng 20 250 50 0 empty empty empty 17 7 0 10 -262144
-1 -1;
#X obj 614 126 outlet;
#X floatatom 673 118 3 0 0 0 - - -;
#X obj 693 143 bng 20 250 50 0 empty empty empty 17 7 0 10 -262144
-1 -1;
#X obj 709 124 outlet;
#X floatatom 766 119 3 0 0 0 - - -;
#X obj 786 144 bng 20 250 50 0 empty empty empty 17 7 0 10 -262144
-1 -1;
#X obj 802 125 outlet;
#X obj 188 -126 outlet;
#X floatatom 245 -131 3 0 0 0 - - -;
#X obj 251 -109 bng 20 250 50 0 empty empty empty 17 7 0 10 -262144
-1 -1;
#X obj 281 -125 outlet;
#X floatatom 340 -133 3 0 0 0 - - -;
#X obj 354 -108 bng 20 250 50 0 empty empty empty 17 7 0 10 -262144
-1 -1;
#X obj 376 -127 outlet;
#X floatatom 479 -132 3 0 0 0 - - -;
#X obj 507 -109 bng 20 250 50 0 empty empty empty 17 7 0 10 -262144
-1 -1;
#X obj 515 -131 outlet;
#X floatatom 580 -139 3 0 0 0 - - -;
#X obj 607 -112 bng 20 250 50 0 empty empty empty 17 7 0 10 -262144
-1 -1;
#X obj 613 -137 outlet;
#X floatatom 675 -141 3 0 0 0 - - -;
#X obj 692 -115 bng 20 250 50 0 empty empty empty 17 7 0 10 -262144
-1 -1;
#X obj 711 -135 outlet;
#X floatatom 768 -140 3 0 0 0 - - -;
#X obj 782 -120 bng 20 250 50 0 empty empty empty 17 7 0 10 -262144
-1 -1;
#X obj 804 -134 outlet;
#X obj 176 404 outlet;
#X floatatom 233 399 3 0 0 0 - - -;
#X obj 239 422 bng 20 250 50 0 empty empty empty 17 7 0 10 -262144
-1 -1;
#X obj 269 405 outlet;
#X floatatom 328 397 3 0 0 0 - - -;
#X obj 347 422 bng 20 250 50 0 empty empty empty 17 7 0 10 -262144
-1 -1;
#X obj 364 403 outlet;
#X floatatom 467 398 3 0 0 0 - - -;
#X obj 488 422 bng 20 250 50 0 empty empty empty 17 7 0 10 -262144
-1 -1;
#X obj 503 399 outlet;
#X floatatom 568 391 3 0 0 0 - - -;
#X obj 581 415 bng 20 250 50 0 empty empty empty 17 7 0 10 -262144
-1 -1;
#X obj 604 397 outlet;
#X floatatom 663 389 3 0 0 0 - - -;
#X obj 682 415 bng 20 250 50 0 empty empty empty 17 7 0 10 -262144
-1 -1;
#X obj 699 395 outlet;
#X floatatom 756 390 3 0 0 0 - - -;
#X obj 770 412 bng 20 250 50 0 empty empty empty 17 7 0 10 -262144
-1 -1;
#X obj 792 396 outlet;
#X floatatom 139 407 3 0 0 0 - - -;
#X obj 149 428 bng 20 250 50 0 empty empty empty 17 7 0 10 -262144
-1 -1;
#X floatatom 152 -128 3 0 0 0 - - -;
#X obj 160 -106 bng 20 250 50 0 empty empty empty 17 7 0 10 -262144
-1 -1;
#X obj 147 840 outlet;
#X floatatom 204 835 3 0 0 0 - - -;
#X obj 211 855 bng 20 250 50 0 empty empty empty 17 7 0 10 -262144
-1 -1;
#X obj 240 841 outlet;
#X floatatom 299 833 3 0 0 0 - - -;
#X obj 309 856 bng 20 250 50 0 empty empty empty 17 7 0 10 -262144
-1 -1;
#X obj 335 839 outlet;
#X floatatom 438 834 3 0 0 0 - - -;
#X obj 449 855 bng 20 250 50 0 empty empty empty 17 7 0 10 -262144
-1 -1;
#X obj 474 835 outlet;
#X floatatom 539 827 3 0 0 0 - - -;
#X obj 549 849 bng 20 250 50 0 empty empty empty 17 7 0 10 -262144
-1 -1;
#X obj 575 833 outlet;
#X floatatom 634 825 3 0 0 0 - - -;
#X obj 646 847 bng 20 250 50 0 empty empty empty 17 7 0 10 -262144
-1 -1;
#X obj 670 831 outlet;
#X floatatom 727 826 3 0 0 0 - - -;
#X obj 740 849 bng 20 250 50 0 empty empty empty 17 7 0 10 -262144
-1 -1;
#X obj 763 832 outlet;
#X floatatom 111 833 3 0 0 0 - - -;
#X obj 120 854 bng 20 250 50 0 empty empty empty 17 7 0 10 -262144
-1 -1;
#X obj 141 373 ctlin 22 1;
#X obj 111 809 ctlin 23 1;
#X obj 233 374 ctlin 26 1;
#X obj 204 810 ctlin 27 1;
#X obj 328 372 ctlin 30 1;
#X obj 299 808 ctlin 31 1;
#X obj 467 368 ctlin 48 1;
#X obj 438 804 ctlin 49 1;
#X obj 539 802 ctlin 53 1;
#X obj 634 800 ctlin 57 1;
#X obj 727 801 ctlin 61 1;
#X floatatom 1006 833 3 0 0 0 - - -;
#X obj 1016 855 bng 20 250 50 0 empty empty empty 17 7 0 10 -262144
-1 -1;
#X obj 1042 839 outlet;
#X obj 1006 808 ctlin 62 1;
#X obj 568 366 ctlin 52 1;
#X obj 663 365 ctlin 56 1;
#X obj 756 366 ctlin 60 1;
#X obj 25 178 knob 32 32 0 127 0 0 empty empty empty 0 -8 0 8 -262144
-1 -1 0 1;
#X obj 147 175 knob 32 32 0 127 0 0 empty empty empty 0 -8 0 8 -262144
-1 -1 0 1;
#X obj 240 175 knob 32 32 0 127 0 0 empty empty empty 0 -8 0 8 -262144
-1 -1 0 1;
#X obj 477 174 knob 32 32 0 127 0 0 empty empty empty 0 -8 0 8 -262144
-1 -1 0 1;
#X obj 578 169 knob 32 32 0 127 0 0 empty empty empty 0 -8 0 8 -262144
-1 -1 0 1;
#X obj 673 169 knob 32 32 0 127 0 0 empty empty empty 0 -8 0 8 -262144
-1 -1 0 1;
#X obj 34 -75 knob 32 32 0 127 0 0 empty empty empty 0 -8 0 8 -262144
-1 -1 0 1;
#X obj 152 -74 knob 32 32 0 127 0 0 empty empty empty 0 -8 0 8 -262144
-1 -1 0 1;
#X obj 244 -74 knob 32 32 0 127 0 0 empty empty empty 0 -8 0 8 -262144
-1 -1 0 1;
#X obj 19 455 knob 32 32 0 127 0 0 empty empty empty 0 -8 0 8 -262144
-1 -1 0 1;
#X obj 139 450 knob 32 32 0 127 0 0 empty empty empty 0 -8 0 8 -262144
-1 -1 0 1;
#X obj 233 449 knob 32 32 0 127 0 0 empty empty empty 0 -8 0 8 -262144
-1 -1 0 1;
#X obj 479 -89 knob 32 32 0 127 0 0 empty empty empty 0 -8 0 8 -262144
-1 -1 0 1;
#X obj 580 -91 knob 32 32 0 127 0 0 empty empty empty 0 -8 0 8 -262144
-1 -1 0 1;
#X obj 675 -91 knob 32 32 0 127 0 0 empty empty empty 0 -8 0 8 -262144
-1 -1 0 1;
#X obj 467 445 knob 32 32 0 127 0 0 empty empty empty 0 -8 0 8 -262144
-1 -1 0 1;
#X obj 568 439 knob 32 32 0 127 0 0 empty empty empty 0 -8 0 8 -262144
-1 -1 0 1;
#X obj 663 436 knob 32 32 0 127 0 0 empty empty empty 0 -8 0 8 -262144
-1 -1 0 1;
#X obj 334 171 knob 32 32 0 127 0 0 empty empty empty 0 -8 0 8 -262144
-1 -1 0 1;
#X obj 340 -85 knob 32 32 0 127 0 0 empty empty empty 0 -8 0 8 -262144
-1 -1 0 1;
#X obj 328 445 knob 32 32 0 127 0 0 empty empty empty 0 -8 0 8 -262144
-1 -1 0 1;
#X obj 765 167 knob 32 32 0 127 0 0 empty empty empty 0 -8 0 8 -262144
-1 -1 195 1;
#X obj 768 -96 knob 32 32 0 127 0 0 empty empty empty 0 -8 0 8 -262144
-1 -1 1025 1;
#X obj 756 435 knob 32 32 0 127 0 0 empty empty empty 0 -8 0 8 -262144
-1 -1 561 1;
#X obj 14 887 vsl 15 128 0 127 0 0 empty empty empty 0 -9 0 10 -262144
-1 -1 3300 1;
#X obj 111 884 vsl 15 128 0 127 0 0 empty empty empty 0 -9 0 10 -262144
-1 -1 5100 1;
#X obj 204 884 vsl 15 128 0 127 0 0 empty empty empty 0 -9 0 10 -262144
-1 -1 9200 1;
#X obj 299 883 vsl 15 128 0 127 0 0 empty empty empty 0 -9 0 10 -262144
-1 -1 5900 1;
#X obj 438 883 vsl 15 128 0 127 0 0 empty empty empty 0 -9 0 10 -262144
-1 -1 0 1;
#X obj 539 875 vsl 15 128 0 127 0 0 empty empty empty 0 -9 0 10 -262144
-1 -1 2000 1;
#X obj 634 874 vsl 15 128 0 127 0 0 empty empty empty 0 -9 0 10 -262144
-1 -1 0 1;
#X obj 727 875 vsl 15 128 0 127 0 0 empty empty empty 0 -9 0 10 -262144
-1 -1 0 1;
#X obj 1006 886 vsl 15 128 0 127 0 0 empty empty empty 0 -9 0 10 -262144
-1 -1 0 1;
#X text 1016 778 MASTER;
#X floatatom 10 645 3 0 0 0 - - -;
#X obj 10 622 notein 1 1;
#X floatatom 67 646 3 0 0 0 - - -;
#X floatatom 11 702 3 0 0 0 - - -;
#X floatatom 69 704 3 0 0 0 - - -;
#X obj 12 678 notein 1 3;
#X floatatom 1243 649 3 0 0 0 - - -;
#X floatatom 1306 648 3 0 0 0 - - -;
#X floatatom 107 647 3 0 0 0 - - -;
#X floatatom 164 647 3 0 0 0 - - -;
#X floatatom 109 705 3 0 0 0 - - -;
#X floatatom 166 705 3 0 0 0 - - -;
#X floatatom 203 646 3 0 0 0 - - -;
#X obj 203 622 notein 1 1;
#X floatatom 260 646 3 0 0 0 - - -;
#X floatatom 205 704 3 0 0 0 - - -;
#X floatatom 262 704 3 0 0 0 - - -;
#X obj 205 678 notein 1 3;
#X floatatom 303 644 3 0 0 0 - - -;
#X obj 303 620 notein 1 1;
#X floatatom 360 644 3 0 0 0 - - -;
#X floatatom 305 702 3 0 0 0 - - -;
#X floatatom 362 702 3 0 0 0 - - -;
#X obj 305 676 notein 1 3;
#X floatatom 450 643 3 0 0 0 - - -;
#X obj 450 619 notein 1 1;
#X floatatom 507 643 3 0 0 0 - - -;
#X floatatom 452 701 3 0 0 0 - - -;
#X floatatom 509 701 3 0 0 0 - - -;
#X obj 452 675 notein 1 3;
#X floatatom 547 644 3 0 0 0 - - -;
#X obj 547 620 notein 1 1;
#X floatatom 604 644 3 0 0 0 - - -;
#X floatatom 549 702 3 0 0 0 - - -;
#X floatatom 606 702 3 0 0 0 - - -;
#X obj 549 676 notein 1 3;
#X floatatom 643 643 3 0 0 0 - - -;
#X obj 643 619 notein 1 1;
#X floatatom 700 643 3 0 0 0 - - -;
#X floatatom 645 701 3 0 0 0 - - -;
#X floatatom 702 701 3 0 0 0 - - -;
#X obj 645 675 notein 1 3;
#X floatatom 743 641 3 0 0 0 - - -;
#X obj 743 617 notein 1 1;
#X floatatom 800 641 3 0 0 0 - - -;
#X floatatom 745 699 3 0 0 0 - - -;
#X floatatom 802 699 3 0 0 0 - - -;
#X obj 745 673 notein 1 3;
#X obj 1243 623 notein 1 27;
#X floatatom 1225 414 3 0 0 0 - - -;
#X floatatom 1288 413 3 0 0 0 - - -;
#X obj 1225 388 notein 1 26;
#X obj 107 623 notein 1 4;
#X obj 109 679 notein 1 6;
#X floatatom 20 493 5 0 0 0 - - -;
#X floatatom 139 490 5 0 0 0 - - -;
#X floatatom 233 489 5 0 0 0 - - -;
#X floatatom 328 487 5 0 0 0 - - -;
#X floatatom 467 488 5 0 0 0 - - -;
#X floatatom 569 484 5 0 0 0 - - -;
#X floatatom 664 480 5 0 0 0 - - -;
#X floatatom 756 478 5 0 0 0 - - -;
#X floatatom 34 -33 5 0 0 0 - - -;
#X floatatom 152 -30 5 0 0 0 - - -;
#X floatatom 244 -36 5 0 0 0 - - -;
#X floatatom 340 -41 5 0 0 0 - - -;
#X floatatom 479 -18 5 0 0 0 - - -;
#X floatatom 580 -16 5 0 0 0 - - -;
#X floatatom 675 -20 5 0 0 0 - - -;
#X floatatom 25 220 5 0 0 0 - - -;
#X floatatom 149 217 5 0 0 0 - - -;
#X floatatom 241 215 5 0 0 0 - - -;
#X floatatom 334 214 5 0 0 0 - - -;
#X floatatom 478 211 5 0 0 0 - - -;
#X floatatom 578 208 5 0 0 0 - - -;
#X floatatom 673 207 5 0 0 0 - - -;
#X floatatom 766 205 5 0 0 0 - - -;
#X floatatom 767 -22 5 0 0 0 - - -;
#X floatatom 335 257 5 0 0 0 - - -;
#X floatatom 241 254 5 0 0 0 - - -;
#X floatatom 148 256 5 0 0 0 - - -;
#X floatatom 26 257 5 0 0 0 - - -;
#X floatatom 766 250 5 0 0 0 - - -;
#X floatatom 673 248 5 0 0 0 - - -;
#X floatatom 578 250 5 0 0 0 - - -;
#X floatatom 477 251 5 0 0 0 - - -;
#X obj 25 104 ctlin 17 1;
#X obj 147 103 ctlin 21 1;
#X obj 240 104 ctlin 25 1;
#X obj 335 102 ctlin 29 1;
#X obj 477 97 ctlin 47 1;
#X obj 578 95 ctlin 51 1;
#X obj 673 95 ctlin 55 1;
#X obj 766 92 ctlin 59 1;
#X obj 768 -164 ctlin 58 1;
#X obj 675 -164 ctlin 54 1;
#X obj 580 -162 ctlin 50 1;
#X obj 479 -160 ctlin 46 1;
#X obj 340 -158 ctlin 28 1;
#X obj 245 -156 ctlin 24 1;
#X obj 152 -157 ctlin 20 1;
#X obj 34 -153 ctlin 16 1;
#X text 1241 -136 SEND ALL;
#X floatatom 757 526 5 0 0 0 - - -;
#X floatatom 664 524 5 0 0 0 - - -;
#X floatatom 569 526 5 0 0 0 - - -;
#X floatatom 468 527 5 0 0 0 - - -;
#X obj 757 503 * 0.82;
#X obj 664 503 * 0.81;
#X obj 468 507 * 0.62;
#X obj 569 506 * 0.625;
#X floatatom 328 534 5 0 0 0 - - -;
#X floatatom 233 536 5 0 0 0 - - -;
#X floatatom 139 533 5 0 0 0 - - -;
#X floatatom 19 533 5 0 0 0 - - -;
#X obj 328 511 * 0.5;
#X obj 233 515 * 0.48;
#X obj 139 513 * 0.37;
#X obj 18 513 * 0.365;
#X floatatom 768 25 5 0 0 0 - - -;
#X floatatom 675 23 5 0 0 0 - - -;
#X floatatom 580 25 5 0 0 0 - - -;
#X floatatom 479 26 5 0 0 0 - - -;
#X obj 580 5 * 8.5;
#X obj 478 6 * 8.49;
#X obj 675 3 * 7.9;
#X obj 768 2 * 8;
#X floatatom 340 3 5 0 0 0 - - -;
#X floatatom 244 4 5 0 0 0 - - -;
#X floatatom 150 11 5 0 0 0 - - -;
#X floatatom 34 6 5 0 0 0 - - -;
#X obj 340 -19 * 8.36;
#X floatatom 1285 127 3 0 0 0 - - -;
#X text 1246 593 BANK RIGHT;
#X text 1228 359 BANK LEFT;
#X obj -303 1504 gemwin;
#X msg -291 1367 destroy;
#X msg -260 1406 1;
#X msg -259 1452 0;
#X text 129 1282 particulas en animacion;
#X obj -1 1365 part_head;
#X obj -2 1321 gemhead;
#X obj 4 1603 part_velsphere 0 0.2 0 0.3;
#X text 163 1757 tiempo que tarde en eliminarse una particula;
#X msg 553 1564 0.2 0 0.3;
#X text 118 1490 x \, y \, z y radio;
#X msg 28 1243 speed 0.1;
#X obj 1 1419 part_color;
#X obj 2 1493 part_size 1;
#X msg 549 1467 2;
#X text 278 1610 direccion de las particulas;
#X text 236 1700 vector de gravedad;
#X obj 2 1806 part_render;
#X obj 2 1857 sphere 0.8;
#X msg 547 1377 0 0 0;
#X floatatom 547 1422 5 0.1 30 0 - - -;
#X msg 550 1511 0 0.3 0 0.3;
#X obj 3 1699 part_gravity 0 -0.02 0;
#X floatatom 560 1878 5 0 0 0 - - -;
#X msg 31 1282 speed \$1;
#X floatatom 545 1261 5 0 12 0 - - -;
#X floatatom 561 1943 5 0 0 0 - - -;
#X floatatom 552 1728 5 1 50 0 - - -;
#X floatatom 561 1837 5 0.1 30 0 - - -;
#X obj 2 1749 part_killold 50;
#X obj 2 1909 pix_texture;
#X obj 1 1998 sphere;
#X floatatom 562 1976 5 0 30 0 - - -;
#X obj 2 1960 rotateXYZ;
#X floatatom 552 1628 5 0 8 0 - - -;
#X floatatom 673 1080 3 0 0 0 - - -;
#X obj 682 1102 bng 20 250 50 0 empty empty empty 17 7 0 10 -262144
-1 -1;
#X obj 709 1086 outlet;
#X obj 673 1055 ctlin 19 1;
#X obj 759 1247 outlet;
#X floatatom 773 1446 3 0 0 0 - - -;
#X obj 780 1466 bng 20 250 50 0 empty empty empty 17 7 0 10 -262144
-1 -1;
#X obj 809 1452 outlet;
#X floatatom 827 1546 3 0 0 0 - - -;
#X obj 837 1569 bng 20 250 50 0 empty empty empty 17 7 0 10 -262144
-1 -1;
#X obj 863 1552 outlet;
#X floatatom 885 1660 3 0 0 0 - - -;
#X obj 896 1681 bng 20 250 50 0 empty empty empty 17 7 0 10 -262144
-1 -1;
#X obj 921 1661 outlet;
#X floatatom 948 1800 3 0 0 0 - - -;
#X obj 958 1822 bng 20 250 50 0 empty empty empty 17 7 0 10 -262144
-1 -1;
#X obj 984 1806 outlet;
#X floatatom 336 2073 3 0 0 0 - - -;
#X obj 348 2095 bng 20 250 50 0 empty empty empty 17 7 0 10 -262144
-1 -1;
#X obj 372 2079 outlet;
#X floatatom 429 2074 3 0 0 0 - - -;
#X obj 442 2097 bng 20 250 50 0 empty empty empty 17 7 0 10 -262144
-1 -1;
#X obj 465 2080 outlet;
#X floatatom 723 1240 3 0 0 0 - - -;
#X obj 732 1261 bng 20 250 50 0 empty empty empty 17 7 0 10 -262144
-1 -1;
#X obj 723 1216 ctlin 23 1;
#X obj 773 1421 ctlin 27 1;
#X obj 827 1521 ctlin 31 1;
#X obj 885 1630 ctlin 49 1;
#X obj 948 1775 ctlin 53 1;
#X obj 336 2048 ctlin 57 1;
#X obj 429 2049 ctlin 61 1;
#X obj 673 1130 vsl 15 128 0 12 0 0 empty empty empty 0 -9 0 10 -159808
-1 -1 3300 1;
#X obj 723 1291 vsl 15 128 0.1 30 0 0 empty empty empty 0 -9 0 10 -159808
-1 -1 5075 1;
#X obj 773 1506 vsl 15 128 -8 8 0 0 empty empty empty 0 -9 0 10 -159808
-1 -1 10950 1;
#X obj 827 1596 vsl 15 128 1 50 0 0 empty empty empty 0 -9 0 10 -159808
-1 -1 5761 1;
#X obj 885 1709 vsl 15 128 0.1 30 0 0 empty empty empty 0 -9 0 10 -159808
-1 -1 0 1;
#X obj 948 1848 vsl 15 128 0 30 0 0 empty empty empty 0 -9 0 10 -159808
-1 -1 2000 1;
#X obj 336 2122 vsl 15 128 0 127 0 0 empty empty empty 0 -9 0 10 -262144
-1 -1 0 1;
#X obj 429 2123 vsl 15 128 0 127 0 0 empty empty empty 0 -9 0 10 -262144
-1 -1 0 1;
#X floatatom 561 1910 5 0 0 0 - - -;
#X text 800 1056 fader 1;
#X text 851 1214 fader 2;
#X text 898 1422 fader 3;
#X text 955 1523 fader 4;
#X text 997 1628 fader 5;
#X text 1055 1776 fader 6;
#X text 351 2015 fader 7;
#X text 453 2012 fader 8;
#X floatatom 674 2039 3 0 0 0 - - -;
#X obj 695 2063 bng 20 250 50 0 empty empty empty 17 7 0 10 -262144
-1 -1;
#X obj 710 2043 outlet;
#X obj 674 2090 knob 32 32 0 127 0 0 empty empty empty 0 -8 0 8 -262144
-1 -1 0 1;
#X floatatom 674 2132 5 0 0 0 - - -;
#X obj 674 2012 ctlin 16 1;
#X obj 832 2044 outlet;
#X floatatom 796 2042 3 0 0 0 - - -;
#X obj 804 2064 bng 20 250 50 0 empty empty empty 17 7 0 10 -262144
-1 -1;
#X obj 796 2096 knob 32 32 0 127 0 0 empty empty empty 0 -8 0 8 -262144
-1 -1 0 1;
#X floatatom 796 2140 5 0 0 0 - - -;
#X obj 796 2013 ctlin 20 1;
#X floatatom 929 2036 3 0 0 0 - - -;
#X obj 935 2058 bng 20 250 50 0 empty empty empty 17 7 0 10 -262144
-1 -1;
#X obj 965 2042 outlet;
#X obj 928 2093 knob 32 32 0 127 0 0 empty empty empty 0 -8 0 8 -262144
-1 -1 0 1;
#X floatatom 928 2131 5 0 0 0 - - -;
#X obj 929 2011 ctlin 24 1;
#X text 662 1985 potenciometro 1 2 y 3 de arriba \, izquierda a derecha
XYZ;
#X text 164 1650 eje x;
#X obj 615 1102 / 10.5833;
#X obj 681 1267 / 4.233;
#X obj 3 1649 part_source;
#X obj 750 1680 / 2.54;
#X obj 801 1764 / 4.233;
#X obj 852 1934 / 4.233;
#X obj 719 1546 bng 20 250 50 0 empty empty empty 17 7 0 10 -262144
-1 -1;
#X obj 672 1516 vsl 15 128 -8 8 0 0 empty empty empty 0 -9 0 10 -159808
-1 -1 1750 1;
#X floatatom 668 1669 5 0 0 0 - - -;
#X obj 637 1490 / -15.875;
#X obj 738 1480 / 15.875;
#X obj -515 965 tripleRand 1;
#X obj -504 1028 tripleLine;
#X obj -522 1057 prepend color;
#X obj -455 933 bng 15 250 50 0 empty empty empty 17 7 0 10 -262144
-1 -1;
#X obj -540 994 list append 1000;
#X obj -452 866 tgl 15 0 empty empty empty 17 7 0 10 -262144 -1 -1
0 1;
#X obj -503 899 metro 1000;
#X text -423 898 marca el tiempo para realizar una acción en milisegundos
;
#X text -424 934 visualizamos dicho tiempo;
#X text -425 966 saca tres valores random de 0 a 1;
#X text -425 1060 genera un color interpretando los tres valores como
RGB;
#X text -423 863 PASO 1 = toggle para activar desactivar la acción
;
#X text -424 994 hace una lista de valores cada cierto tiempo;
#X text -425 1029 emplea tres valores de la lista guardada que pasan
de 0 a 1;
#X msg 547 1339 0 0.6 0.6;
#X obj -198 1643 tripleLine;
#X text -334 1527 verde;
#X text -184 1488 rojo;
#X obj -497 737 ctlin;
#X floatatom -497 807 5 0 0 0 - - -;
#X floatatom -497 779 5 0 0 0 - - -;
#X text -443 738 saca valores;
#X text -440 780 valor 1;
#X text -441 808 valor 2;
#X floatatom -553 1711 3 0 0 0 - - -;
#X obj -496 1698 outlet;
#X obj -541 1642 ctlin 58 1;
#X obj -502 1744 tgl 15 0 empty empty empty 17 7 0 10 -262144 -1 -1
42 42;
#X floatatom -389 1707 3 0 0 0 - - -;
#X obj -332 1694 outlet;
#X obj -338 1740 tgl 15 0 empty empty empty 17 7 0 10 -262144 -1 -1
8 8;
#X floatatom -228 1771 3 0 0 0 - - -;
#X obj -171 1758 outlet;
#X obj -177 1804 tgl 15 0 empty empty empty 17 7 0 10 -262144 -1 -1
23 23;
#X obj -377 1638 ctlin 59 1;
#X obj -216 1702 ctlin 60 1;
#X msg -475 841 0 0 0;
#X text -171 1535 granate;
#X text -494 1533 amarillo;
#X obj 26 237 * 12.7;
#X obj 148 236 * 12.8;
#X obj 241 234 * 12.9;
#X obj 335 234 * 13;
#X obj 477 231 * 13.74;
#X obj 578 230 * 13.82;
#X obj 673 227 * 14.55;
#X obj 766 227 * 14.58;
#X obj 33 -14 * 100.24;
#X obj 150 -9 * 80.25;
#X obj 244 -16 * 80.35;
#X msg -174 1558 0.4 0 0.2 640;
#X msg -338 1558 0.1 0.5 0.1 640;
#X msg -495 1557 0.7 0.5 0 640;
#X msg -313 1195 create;
#X obj -184 1192 gemhead 999;
#N canvas 0 22 450 300 gemwin 0;
#X obj 132 136 gemwin;
#X obj 67 89 outlet;
#X obj 67 10 inlet;
#X obj 67 41 route create;
#X msg 67 70 set destroy;
#X msg 142 68 set create;
#X msg 198 112 destroy \, reset;
#X msg 132 93 create \, 1 \, frame 60;
#X connect 2 0 3 0;
#X connect 3 0 4 0;
#X connect 3 0 7 0;
#X connect 3 1 5 0;
#X connect 3 1 6 0;
#X connect 4 0 1 0;
#X connect 5 0 1 0;
#X connect 6 0 0 0;
#X connect 7 0 0 0;
#X restore -313 1215 pd gemwin (60fps);
#X obj -196 1259 syphonserver name;
#X msg -303 1330 create \, dimen 1024 768 \, 1;
#X connect 0 0 1 0;
#X connect 0 0 116 0;
#X connect 3 0 4 0;
#X connect 3 0 122 0;
#X connect 6 0 7 0;
#X connect 6 0 125 0;
#X connect 9 0 10 0;
#X connect 9 0 140 0;
#X connect 12 0 13 0;
#X connect 12 0 117 0;
#X connect 15 0 16 0;
#X connect 15 0 118 0;
#X connect 18 0 6 0;
#X connect 18 0 8 0;
#X connect 19 0 9 0;
#X connect 19 0 11 0;
#X connect 20 0 21 0;
#X connect 20 0 134 0;
#X connect 23 0 24 0;
#X connect 23 0 119 0;
#X connect 26 0 27 0;
#X connect 26 0 120 0;
#X connect 29 0 30 0;
#X connect 29 0 121 0;
#X connect 32 0 33 0;
#X connect 32 0 137 0;
#X connect 36 0 37 0;
#X connect 36 0 124 0;
#X connect 39 0 40 0;
#X connect 39 0 135 0;
#X connect 42 0 43 0;
#X connect 42 0 128 0;
#X connect 45 0 46 0;
#X connect 45 0 129 0;
#X connect 48 0 49 0;
#X connect 48 0 130 0;
#X connect 51 0 52 0;
#X connect 51 0 138 0;
#X connect 55 0 56 0;
#X connect 55 0 127 0;
#X connect 58 0 59 0;
#X connect 58 0 136 0;
#X connect 61 0 62 0;
#X connect 61 0 131 0;
#X connect 64 0 65 0;
#X connect 64 0 132 0;
#X connect 67 0 68 0;
#X connect 67 0 133 0;
#X connect 70 0 71 0;
#X connect 70 0 139 0;
#X connect 73 0 74 0;
#X connect 73 0 126 0;
#X connect 75 0 76 0;
#X connect 75 0 123 0;
#X connect 78 0 79 0;
#X connect 78 0 142 0;
#X connect 81 0 82 0;
#X connect 81 0 143 0;
#X connect 84 0 85 0;
#X connect 84 0 144 0;
#X connect 87 0 88 0;
#X connect 87 0 145 0;
#X connect 90 0 91 0;
#X connect 90 0 146 0;
#X connect 93 0 94 0;
#X connect 93 0 147 0;
#X connect 96 0 97 0;
#X connect 96 0 141 0;
#X connect 98 0 54 0;
#X connect 98 0 73 0;
#X connect 99 0 77 0;
#X connect 99 0 96 0;
#X connect 100 0 55 0;
#X connect 100 0 57 0;
#X connect 101 0 78 0;
#X connect 101 0 80 0;
#X connect 102 0 58 0;
#X connect 102 0 60 0;
#X connect 103 0 81 0;
#X connect 103 0 83 0;
#X connect 104 0 61 0;
#X connect 104 0 63 0;
#X connect 105 0 84 0;
#X connect 105 0 86 0;
#X connect 106 0 87 0;
#X connect 106 0 89 0;
#X connect 107 0 90 0;
#X connect 107 0 92 0;
#X connect 108 0 93 0;
#X connect 108 0 95 0;
#X connect 109 0 110 0;
#X connect 109 0 148 0;
#X connect 112 0 109 0;
#X connect 112 0 111 0;
#X connect 113 0 64 0;
#X connect 113 0 66 0;
#X connect 114 0 67 0;
#X connect 114 0 69 0;
#X connect 115 0 70 0;
#X connect 115 0 72 0;
#X connect 116 0 219 0;
#X connect 117 0 220 0;
#X connect 118 0 221 0;
#X connect 119 0 223 0;
#X connect 120 0 224 0;
#X connect 121 0 225 0;
#X connect 122 0 212 0;
#X connect 123 0 213 0;
#X connect 124 0 214 0;
#X connect 125 0 204 0;
#X connect 126 0 205 0;
#X connect 127 0 206 0;
#X connect 128 0 216 0;
#X connect 129 0 217 0;
#X connect 130 0 218 0;
#X connect 131 0 208 0;
#X connect 132 0 209 0;
#X connect 133 0 210 0;
#X connect 134 0 222 0;
#X connect 135 0 215 0;
#X connect 136 0 207 0;
#X connect 137 0 226 0;
#X connect 138 0 227 0;
#X connect 139 0 211 0;
#X connect 151 0 150 0;
#X connect 151 1 152 0;
#X connect 155 0 153 0;
#X connect 155 1 154 0;
#X connect 163 0 162 0;
#X connect 163 1 164 0;
#X connect 167 0 165 0;
#X connect 167 1 166 0;
#X connect 169 0 168 0;
#X connect 169 1 170 0;
#X connect 173 0 171 0;
#X connect 173 1 172 0;
#X connect 175 0 174 0;
#X connect 175 1 176 0;
#X connect 179 0 177 0;
#X connect 179 1 178 0;
#X connect 181 0 180 0;
#X connect 181 1 182 0;
#X connect 185 0 183 0;
#X connect 185 1 184 0;
#X connect 187 0 186 0;
#X connect 187 1 188 0;
#X connect 191 0 189 0;
#X connect 191 1 190 0;
#X connect 193 0 192 0;
#X connect 193 1 194 0;
#X connect 197 0 195 0;
#X connect 197 1 196 0;
#X connect 198 0 156 0;
#X connect 198 1 157 0;
#X connect 201 0 199 0;
#X connect 201 1 200 0;
#X connect 202 0 158 0;
#X connect 202 1 159 0;
#X connect 203 0 160 0;
#X connect 203 1 161 0;
#X connect 204 0 268 0;
#X connect 205 0 267 0;
#X connect 206 0 266 0;
#X connect 207 0 265 0;
#X connect 208 0 259 0;
#X connect 209 0 260 0;
#X connect 210 0 258 0;
#X connect 211 0 257 0;
#X connect 212 0 447 0;
#X connect 213 0 448 0;
#X connect 214 0 449 0;
#X connect 215 0 281 0;
#X connect 216 0 274 0;
#X connect 217 0 273 0;
#X connect 218 0 275 0;
#X connect 219 0 439 0;
#X connect 220 0 440 0;
#X connect 221 0 441 0;
#X connect 222 0 442 0;
#X connect 223 0 443 0;
#X connect 224 0 444 0;
#X connect 225 0 445 0;
#X connect 226 0 446 0;
#X connect 227 0 276 0;
#X connect 236 0 0 0;
#X connect 236 0 2 0;
#X connect 237 0 12 0;
#X connect 237 0 14 0;
#X connect 238 0 15 0;
#X connect 238 0 17 0;
#X connect 239 0 20 0;
#X connect 239 0 22 0;
#X connect 240 0 23 0;
#X connect 240 0 25 0;
#X connect 241 0 26 0;
#X connect 241 0 28 0;
#X connect 242 0 29 0;
#X connect 242 0 31 0;
#X connect 243 0 32 0;
#X connect 243 0 34 0;
#X connect 244 0 51 0;
#X connect 244 0 53 0;
#X connect 245 0 48 0;
#X connect 245 0 50 0;
#X connect 246 0 45 0;
#X connect 246 0 47 0;
#X connect 247 0 42 0;
#X connect 247 0 44 0;
#X connect 248 0 39 0;
#X connect 248 0 41 0;
#X connect 249 0 36 0;
#X connect 249 0 38 0;
#X connect 250 0 35 0;
#X connect 250 0 75 0;
#X connect 251 0 3 0;
#X connect 251 0 5 0;
#X connect 257 0 253 0;
#X connect 258 0 254 0;
#X connect 259 0 256 0;
#X connect 260 0 255 0;
#X connect 265 0 261 0;
#X connect 266 0 262 0;
#X connect 267 0 263 0;
#X connect 268 0 264 0;
#X connect 273 0 271 0;
#X connect 274 0 272 0;
#X connect 275 0 270 0;
#X connect 276 0 269 0;
#X connect 281 0 277 0;
#X connect 286 0 285 0;
#X connect 287 0 285 0;
#X connect 288 0 285 0;
#X connect 290 0 297 0;
#X connect 291 0 290 0;
#X connect 292 0 391 0;
#X connect 294 0 292 1;
#X connect 296 0 290 0;
#X connect 297 0 298 0;
#X connect 298 0 292 0;
#X connect 299 0 298 1;
#X connect 302 0 303 0;
#X connect 303 0 315 0;
#X connect 304 0 297 2;
#X connect 305 0 298 1;
#X connect 306 0 292 1;
#X connect 307 0 314 0;
#X connect 308 0 318 1;
#X connect 309 0 290 0;
#X connect 310 0 309 0;
#X connect 311 0 318 2;
#X connect 312 0 314 1;
#X connect 313 0 303 1;
#X connect 314 0 302 0;
#X connect 315 0 318 0;
#X connect 317 0 316 2;
#X connect 318 0 316 0;
#X connect 319 0 391 3;
#X connect 320 0 321 0;
#X connect 320 0 389 0;
#X connect 323 0 320 0;
#X connect 323 0 322 0;
#X connect 325 0 326 0;
#X connect 325 0 398 0;
#X connect 325 0 399 0;
#X connect 328 0 329 0;
#X connect 328 0 392 0;
#X connect 331 0 332 0;
#X connect 331 0 393 0;
#X connect 334 0 335 0;
#X connect 334 0 394 0;
#X connect 337 0 338 0;
#X connect 337 0 358 0;
#X connect 340 0 341 0;
#X connect 340 0 359 0;
#X connect 343 0 344 0;
#X connect 343 0 390 0;
#X connect 345 0 324 0;
#X connect 345 0 343 0;
#X connect 346 0 325 0;
#X connect 346 0 327 0;
#X connect 347 0 328 0;
#X connect 347 0 330 0;
#X connect 348 0 331 0;
#X connect 348 0 333 0;
#X connect 349 0 334 0;
#X connect 349 0 336 0;
#X connect 350 0 337 0;
#X connect 350 0 339 0;
#X connect 351 0 340 0;
#X connect 351 0 342 0;
#X connect 352 0 310 0;
#X connect 353 0 305 0;
#X connect 354 0 319 0;
#X connect 355 0 312 0;
#X connect 356 0 313 0;
#X connect 357 0 317 0;
#X connect 360 0 318 2;
#X connect 369 0 370 0;
#X connect 369 0 372 0;
#X connect 372 0 373 0;
#X connect 373 0 308 0;
#X connect 374 0 369 0;
#X connect 374 0 371 0;
#X connect 376 0 377 0;
#X connect 376 0 378 0;
#X connect 378 0 379 0;
#X connect 379 0 360 0;
#X connect 380 0 375 0;
#X connect 380 0 376 0;
#X connect 381 0 382 0;
#X connect 381 0 384 0;
#X connect 384 0 385 0;
#X connect 385 0 311 0;
#X connect 386 0 381 0;
#X connect 386 0 383 0;
#X connect 389 0 352 0;
#X connect 390 0 353 0;
#X connect 391 0 307 0;
#X connect 392 0 355 0;
#X connect 393 0 356 0;
#X connect 394 0 357 0;
#X connect 396 0 397 0;
#X connect 397 0 391 2;
#X connect 398 0 396 0;
#X connect 399 0 354 0;
#X connect 400 0 404 0;
#X connect 401 0 402 0;
#X connect 402 0 285 0;
#X connect 403 0 400 0;
#X connect 404 0 401 0;
#X connect 405 0 406 0;
#X connect 406 0 403 0;
#X connect 414 0 297 1;
#X connect 415 0 297 1;
#X connect 418 0 420 0;
#X connect 418 1 419 0;
#X connect 424 0 427 0;
#X connect 426 0 424 0;
#X connect 426 0 425 0;
#X connect 427 0 452 0;
#X connect 428 0 430 0;
#X connect 430 0 451 0;
#X connect 431 0 433 0;
#X connect 433 0 450 0;
#X connect 434 0 428 0;
#X connect 434 0 429 0;
#X connect 435 0 431 0;
#X connect 435 0 432 0;
#X connect 436 0 402 0;
#X connect 439 0 231 0;
#X connect 440 0 230 0;
#X connect 441 0 229 0;
#X connect 442 0 228 0;
#X connect 443 0 235 0;
#X connect 444 0 234 0;
#X connect 445 0 233 0;
#X connect 446 0 232 0;
#X connect 447 0 280 0;
#X connect 448 0 279 0;
#X connect 449 0 278 0;
#X connect 450 0 415 0;
#X connect 451 0 415 0;
#X connect 452 0 415 0;
#X connect 453 0 455 0;
#X connect 454 0 456 0;
#X connect 455 0 453 0;
#X connect 457 0 285 0;
