#N canvas 342 80 1271 714 10;
#X floatatom 598 322 5 0 0 0 - - -;
#X obj 481 -104 adc~;
#X obj 481 -76 *~ 10;
#X obj 342 -100 bng 15 250 50 0 empty empty empty 17 7 0 10 -262144
-1 -1;
#X obj 342 -49 tabwrite~ array1;
#X obj 690 74 threshold~ 1 3000 0.1 1000;
#X obj 263 526 cnv 15 200 295 empty empty empty 20 12 0 14 -228992
-66577 0;
#X obj 727 150 cnv 15 100 60 empty empty empty 20 12 0 14 -195568 -66577
0;
#N canvas 0 22 450 300 gemwin 0;
#X obj 132 136 gemwin;
#X obj 67 89 outlet;
#X obj 67 10 inlet;
#X obj 67 41 route create;
#X msg 67 70 set destroy;
#X msg 142 68 set create;
#X msg 132 112 create \, 1;
#X msg 198 112 destroy \, reset;
#X connect 2 0 3 0;
#X connect 3 0 4 0;
#X connect 3 0 6 0;
#X connect 3 1 5 0;
#X connect 3 1 7 0;
#X connect 4 0 1 0;
#X connect 5 0 1 0;
#X connect 6 0 0 0;
#X connect 7 0 0 0;
#X restore 738 187 pd gemwin;
#X msg 765 157 create;
#X text 727 131 Create window:;
#X obj 268 580 cnv 15 190 200 empty empty empty 20 12 0 14 -85973 -66577
0;
#X obj 315 787 cnv 15 100 30 empty empty empty 20 12 0 14 -24198 -66577
0;
#X obj 390 701 cnv 15 65 75 empty empty empty 20 12 0 14 -24198 -66577
0;
#X msg 273 631 draw line;
#X msg 273 586 draw fill;
#X msg 273 608 draw point;
#X obj 331 532 gemhead;
#X msg 379 583 1 1 0;
#X msg 387 603 1 -1 0;
#X floatatom 399 664 5 0 0 0 - - -;
#X msg 397 643 -2 1 0;
#X msg 393 623 -1 -1 -3;
#X msg 273 651 draw linestrip;
#X msg 273 671 draw tri;
#X msg 273 693 draw tristrip;
#X msg 272 716 draw trifan;
#X msg 272 737 draw quad;
#X msg 272 759 draw quadstrip;
#X obj 331 556 rotateXYZ;
#X floatatom 389 533 5 0 0 0 - - -;
#X obj 331 794 curve 5;
#X obj 402 557 loadbang;
#X floatatom 393 705 5 0 10 0 - - -;
#X msg 393 721 width \$1;
#X floatatom 394 742 5 0 100 0 - - -;
#X msg 394 759 res \$1;
#X msg 399 681 \$1 \$1 \$1;
#X floatatom 389 398 5 0 0 0 - - -;
#X obj 474 528 cnv 15 200 295 empty empty empty 20 12 0 14 -228992
-66577 0;
#X obj 479 582 cnv 15 190 200 empty empty empty 20 12 0 14 -85973 -66577
0;
#X obj 526 789 cnv 15 100 30 empty empty empty 20 12 0 14 -24198 -66577
0;
#X obj 601 703 cnv 15 65 75 empty empty empty 20 12 0 14 -24198 -66577
0;
#X msg 484 633 draw line;
#X msg 484 588 draw fill;
#X msg 484 610 draw point;
#X obj 542 534 gemhead;
#X msg 590 585 1 1 0;
#X msg 598 605 1 -1 0;
#X floatatom 610 666 5 0 0 0 - - -;
#X msg 608 645 -2 1 0;
#X msg 604 625 -1 -1 -3;
#X msg 484 653 draw linestrip;
#X msg 484 673 draw tri;
#X msg 484 695 draw tristrip;
#X msg 483 718 draw trifan;
#X msg 483 739 draw quad;
#X msg 483 761 draw quadstrip;
#X obj 542 558 rotateXYZ;
#X floatatom 600 535 5 0 0 0 - - -;
#X obj 542 796 curve 5;
#X obj 613 559 loadbang;
#X floatatom 604 707 5 0 10 0 - - -;
#X msg 604 723 width \$1;
#X floatatom 605 744 5 0 100 0 - - -;
#X msg 605 761 res \$1;
#X msg 610 683 \$1 \$1 \$1;
#X text 269 507 Linea 3D:;
#X text 480 509 Linea 3D:;
#X text 120 361 video;
#X obj 46 530 cnv 15 200 295 empty empty empty 20 12 0 14 -228992 -66577
0;
#X obj 51 584 cnv 15 190 200 empty empty empty 20 12 0 14 -85973 -66577
0;
#X obj 98 791 cnv 15 100 30 empty empty empty 20 12 0 14 -24198 -66577
0;
#X obj 173 705 cnv 15 65 75 empty empty empty 20 12 0 14 -24198 -66577
0;
#X msg 56 635 draw line;
#X msg 56 590 draw fill;
#X msg 56 612 draw point;
#X obj 114 536 gemhead;
#X msg 162 587 1 1 0;
#X msg 170 607 1 -1 0;
#X floatatom 182 668 5 0 0 0 - - -;
#X msg 180 647 -2 1 0;
#X msg 176 627 -1 -1 -3;
#X msg 56 655 draw linestrip;
#X msg 56 675 draw tri;
#X msg 56 697 draw tristrip;
#X msg 55 720 draw trifan;
#X msg 55 741 draw quad;
#X msg 55 763 draw quadstrip;
#X obj 114 560 rotateXYZ;
#X floatatom 172 537 5 0 0 0 - - -;
#X obj 114 798 curve 5;
#X obj 185 561 loadbang;
#X floatatom 176 709 5 0 10 0 - - -;
#X msg 176 725 width \$1;
#X floatatom 177 746 5 0 100 0 - - -;
#X msg 177 763 res \$1;
#X msg 182 685 \$1 \$1 \$1;
#X text 52 511 Linea 3D:;
#X floatatom 172 401 5 0 0 0 - - -;
#X obj 694 534 cnv 15 200 295 empty empty empty 20 12 0 14 -228992
-66577 0;
#X obj 699 588 cnv 15 190 200 empty empty empty 20 12 0 14 -85973 -66577
0;
#X obj 746 795 cnv 15 100 30 empty empty empty 20 12 0 14 -24198 -66577
0;
#X obj 821 709 cnv 15 65 75 empty empty empty 20 12 0 14 -24198 -66577
0;
#X msg 704 639 draw line;
#X msg 704 594 draw fill;
#X msg 704 616 draw point;
#X obj 762 540 gemhead;
#X msg 810 591 1 1 0;
#X msg 818 611 1 -1 0;
#X floatatom 830 672 5 0 0 0 - - -;
#X msg 828 651 -2 1 0;
#X msg 824 631 -1 -1 -3;
#X msg 704 659 draw linestrip;
#X msg 704 679 draw tri;
#X msg 704 701 draw tristrip;
#X msg 703 724 draw trifan;
#X msg 703 745 draw quad;
#X msg 703 767 draw quadstrip;
#X obj 762 564 rotateXYZ;
#X floatatom 820 541 5 0 0 0 - - -;
#X obj 762 802 curve 5;
#X obj 833 565 loadbang;
#X floatatom 824 713 5 0 10 0 - - -;
#X msg 824 729 width \$1;
#X floatatom 825 750 5 0 100 0 - - -;
#X msg 825 767 res \$1;
#X msg 830 689 \$1 \$1 \$1;
#X text 700 515 Linea 3D:;
#X floatatom 819 326 5 0 0 0 - - -;
#X floatatom 689 322 5 0 0 0 - - -;
#X floatatom 281 396 5 0 0 0 - - -;
#X obj -174 528 cnv 15 200 295 empty empty empty 20 12 0 14 -228992
-66577 0;
#X obj -169 582 cnv 15 190 200 empty empty empty 20 12 0 14 -85973
-66577 0;
#X obj -122 789 cnv 15 100 30 empty empty empty 20 12 0 14 -24198 -66577
0;
#X obj -47 703 cnv 15 65 75 empty empty empty 20 12 0 14 -24198 -66577
0;
#X msg -164 633 draw line;
#X msg -164 588 draw fill;
#X msg -164 610 draw point;
#X obj -106 534 gemhead;
#X msg -58 585 1 1 0;
#X msg -50 605 1 -1 0;
#X floatatom -38 666 5 0 0 0 - - -;
#X msg -40 645 -2 1 0;
#X msg -44 625 -1 -1 -3;
#X msg -164 653 draw linestrip;
#X msg -164 673 draw tri;
#X msg -164 695 draw tristrip;
#X msg -165 718 draw trifan;
#X msg -165 739 draw quad;
#X msg -165 761 draw quadstrip;
#X obj -106 558 rotateXYZ;
#X floatatom -48 535 5 0 0 0 - - -;
#X obj -106 796 curve 5;
#X obj -35 559 loadbang;
#X floatatom -44 707 5 0 10 0 - - -;
#X msg -44 723 width \$1;
#X floatatom -43 744 5 0 100 0 - - -;
#X msg -43 761 res \$1;
#X msg -38 683 \$1 \$1 \$1;
#X text -168 509 Linea 3D:;
#X text -293 367 video;
#X floatatom -41 403 5 0 0 0 - - -;
#X floatatom -449 422 5 0 0 0 - - -;
#X floatatom -253 406 5 0 0 0 - - -;
#X obj -379 519 cnv 15 200 295 empty empty empty 20 12 0 14 -228992
-66577 0;
#X obj -374 573 cnv 15 190 200 empty empty empty 20 12 0 14 -85973
-66577 0;
#X obj -327 780 cnv 15 100 30 empty empty empty 20 12 0 14 -24198 -66577
0;
#X obj -252 694 cnv 15 65 75 empty empty empty 20 12 0 14 -24198 -66577
0;
#X msg -369 624 draw line;
#X msg -369 579 draw fill;
#X msg -369 601 draw point;
#X obj -311 525 gemhead;
#X msg -263 576 1 1 0;
#X msg -255 596 1 -1 0;
#X floatatom -243 657 5 0 0 0 - - -;
#X msg -245 636 -2 1 0;
#X msg -249 616 -1 -1 -3;
#X msg -369 644 draw linestrip;
#X msg -369 664 draw tri;
#X msg -369 686 draw tristrip;
#X msg -370 709 draw trifan;
#X msg -370 730 draw quad;
#X msg -370 752 draw quadstrip;
#X obj -311 549 rotateXYZ;
#X floatatom -253 526 5 0 0 0 - - -;
#X obj -311 787 curve 5;
#X obj -240 550 loadbang;
#X floatatom -249 698 5 0 10 0 - - -;
#X msg -249 714 width \$1;
#X floatatom -248 735 5 0 100 0 - - -;
#X msg -248 752 res \$1;
#X msg -243 674 \$1 \$1 \$1;
#X text -373 500 Linea 3D:;
#X floatatom 757 319 5 0 0 0 - - -;
#X floatatom -131 401 5 0 0 0 - - -;
#X floatatom -505 422 5 0 0 0 - - -;
#X obj -600 520 cnv 15 200 295 empty empty empty 20 12 0 14 -228992
-66577 0;
#X obj -595 574 cnv 15 190 200 empty empty empty 20 12 0 14 -85973
-66577 0;
#X obj -548 781 cnv 15 100 30 empty empty empty 20 12 0 14 -24198 -66577
0;
#X obj -473 695 cnv 15 65 75 empty empty empty 20 12 0 14 -24198 -66577
0;
#X msg -590 625 draw line;
#X msg -590 580 draw fill;
#X msg -590 602 draw point;
#X obj -532 526 gemhead;
#X msg -484 577 1 1 0;
#X msg -476 597 1 -1 0;
#X floatatom -464 658 5 0 0 0 - - -;
#X msg -466 637 -2 1 0;
#X msg -470 617 -1 -1 -3;
#X msg -590 645 draw linestrip;
#X msg -590 665 draw tri;
#X msg -590 687 draw tristrip;
#X msg -591 710 draw trifan;
#X msg -591 731 draw quad;
#X msg -591 753 draw quadstrip;
#X obj -532 550 rotateXYZ;
#X floatatom -474 527 5 0 0 0 - - -;
#X obj -532 788 curve 5;
#X obj -461 551 loadbang;
#X floatatom -470 699 5 0 10 0 - - -;
#X msg -470 715 width \$1;
#X floatatom -469 736 5 0 100 0 - - -;
#X msg -469 753 res \$1;
#X msg -464 675 \$1 \$1 \$1;
#X floatatom -643 418 5 0 0 0 - - -;
#X obj -810 522 cnv 15 200 295 empty empty empty 20 12 0 14 -228992
-66577 0;
#X obj -805 576 cnv 15 190 200 empty empty empty 20 12 0 14 -85973
-66577 0;
#X obj -758 783 cnv 15 100 30 empty empty empty 20 12 0 14 -24198 -66577
0;
#X obj -683 697 cnv 15 65 75 empty empty empty 20 12 0 14 -24198 -66577
0;
#X msg -800 627 draw line;
#X msg -800 582 draw fill;
#X msg -800 604 draw point;
#X obj -742 528 gemhead;
#X msg -694 579 1 1 0;
#X msg -686 599 1 -1 0;
#X floatatom -674 660 5 0 0 0 - - -;
#X msg -676 639 -2 1 0;
#X msg -680 619 -1 -1 -3;
#X msg -800 647 draw linestrip;
#X msg -800 667 draw tri;
#X msg -800 689 draw tristrip;
#X msg -801 712 draw trifan;
#X msg -801 733 draw quad;
#X msg -801 755 draw quadstrip;
#X obj -742 552 rotateXYZ;
#X floatatom -684 529 5 0 0 0 - - -;
#X obj -742 808 curve 5;
#X obj -671 553 loadbang;
#X floatatom -680 701 5 0 10 0 - - -;
#X msg -680 717 width \$1;
#X floatatom -679 738 5 0 100 0 - - -;
#X msg -679 755 res \$1;
#X msg -674 677 \$1 \$1 \$1;
#X floatatom -816 435 5 0 0 0 - - -;
#X floatatom -981 463 5 0 0 0 - - -;
#X obj -1013 529 cnv 15 200 295 empty empty empty 20 12 0 14 -228992
-66577 0;
#X obj -1008 583 cnv 15 190 200 empty empty empty 20 12 0 14 -85973
-66577 0;
#X obj -961 790 cnv 15 100 30 empty empty empty 20 12 0 14 -24198 -66577
0;
#X obj -886 704 cnv 15 65 75 empty empty empty 20 12 0 14 -24198 -66577
0;
#X msg -1003 634 draw line;
#X msg -1003 589 draw fill;
#X msg -1003 611 draw point;
#X obj -945 535 gemhead;
#X msg -897 586 1 1 0;
#X msg -889 606 1 -1 0;
#X floatatom -877 667 5 0 0 0 - - -;
#X msg -879 646 -2 1 0;
#X msg -883 626 -1 -1 -3;
#X msg -1003 654 draw linestrip;
#X msg -1003 674 draw tri;
#X msg -1003 696 draw tristrip;
#X msg -1004 719 draw trifan;
#X msg -1004 740 draw quad;
#X msg -1004 762 draw quadstrip;
#X obj -945 559 rotateXYZ;
#X floatatom -887 536 5 0 0 0 - - -;
#X obj -945 797 curve 5;
#X obj -874 560 loadbang;
#X floatatom -883 708 5 0 10 0 - - -;
#X msg -883 724 width \$1;
#X floatatom -882 745 5 0 100 0 - - -;
#X msg -882 762 res \$1;
#X msg -877 684 \$1 \$1 \$1;
#X floatatom -1056 427 5 0 0 0 - - -;
#X obj -1171 792 cnv 15 100 30 empty empty empty 20 12 0 14 -24198
-66577 0;
#X obj -1096 706 cnv 15 65 75 empty empty empty 20 12 0 14 -24198 -66577
0;
#X msg -1213 636 draw line;
#X msg -1213 591 draw fill;
#X msg -1213 613 draw point;
#X obj -1155 537 gemhead;
#X msg -1107 588 1 1 0;
#X msg -1099 608 1 -1 0;
#X floatatom -1087 669 5 0 0 0 - - -;
#X msg -1089 648 -2 1 0;
#X msg -1093 628 -1 -1 -3;
#X msg -1213 656 draw linestrip;
#X msg -1213 676 draw tri;
#X msg -1213 698 draw tristrip;
#X msg -1214 721 draw trifan;
#X msg -1214 742 draw quad;
#X msg -1214 764 draw quadstrip;
#X obj -1155 561 rotateXYZ;
#X floatatom -1097 538 5 0 0 0 - - -;
#X obj -1155 799 curve 5;
#X obj -1084 562 loadbang;
#X floatatom -1093 710 5 0 10 0 - - -;
#X msg -1093 726 width \$1;
#X floatatom -1092 747 5 0 100 0 - - -;
#X msg -1092 764 res \$1;
#X msg -1087 686 \$1 \$1 \$1;
#X obj -505 384 random 5;
#X floatatom -1261 434 5 0 0 0 - - -;
#X obj -1376 799 cnv 15 100 30 empty empty empty 20 12 0 14 -24198
-66577 0;
#X obj -1301 713 cnv 15 65 75 empty empty empty 20 12 0 14 -24198 -66577
0;
#X msg -1418 643 draw line;
#X msg -1418 598 draw fill;
#X msg -1418 620 draw point;
#X obj -1360 544 gemhead;
#X msg -1312 595 1 1 0;
#X msg -1304 615 1 -1 0;
#X floatatom -1292 676 5 0 0 0 - - -;
#X msg -1294 655 -2 1 0;
#X msg -1298 635 -1 -1 -3;
#X msg -1418 663 draw linestrip;
#X msg -1418 683 draw tri;
#X msg -1418 705 draw tristrip;
#X msg -1419 728 draw trifan;
#X msg -1419 749 draw quad;
#X msg -1419 771 draw quadstrip;
#X obj -1360 568 rotateXYZ;
#X floatatom -1302 545 5 0 0 0 - - -;
#X obj -1360 806 curve 5;
#X obj -1289 569 loadbang;
#X floatatom -1298 717 5 0 10 0 - - -;
#X msg -1298 733 width \$1;
#X floatatom -1297 754 5 0 100 0 - - -;
#X msg -1297 771 res \$1;
#X msg -1292 693 \$1 \$1 \$1;
#X floatatom -1127 428 5 0 0 0 - - -;
#X obj -1127 390 random 3;
#X floatatom -1505 490 5 0 0 0 - - -;
#X floatatom -1561 490 5 0 0 0 - - -;
#X obj -1656 588 cnv 15 200 295 empty empty empty 20 12 0 14 -228992
-66577 0;
#X obj -1651 642 cnv 15 190 200 empty empty empty 20 12 0 14 -85973
-66577 0;
#X obj -1604 849 cnv 15 100 30 empty empty empty 20 12 0 14 -24198
-66577 0;
#X obj -1529 763 cnv 15 65 75 empty empty empty 20 12 0 14 -24198 -66577
0;
#X msg -1646 693 draw line;
#X msg -1646 648 draw fill;
#X msg -1646 670 draw point;
#X obj -1588 594 gemhead;
#X msg -1540 645 1 1 0;
#X msg -1532 665 1 -1 0;
#X floatatom -1520 726 5 0 0 0 - - -;
#X msg -1522 705 -2 1 0;
#X msg -1526 685 -1 -1 -3;
#X msg -1646 713 draw linestrip;
#X msg -1646 733 draw tri;
#X msg -1646 755 draw tristrip;
#X msg -1647 778 draw trifan;
#X msg -1647 799 draw quad;
#X msg -1647 821 draw quadstrip;
#X obj -1588 618 rotateXYZ;
#X floatatom -1530 595 5 0 0 0 - - -;
#X obj -1588 856 curve 5;
#X obj -1517 619 loadbang;
#X floatatom -1526 767 5 0 10 0 - - -;
#X msg -1526 783 width \$1;
#X floatatom -1525 804 5 0 100 0 - - -;
#X msg -1525 821 res \$1;
#X msg -1520 743 \$1 \$1 \$1;
#X floatatom -1699 486 5 0 0 0 - - -;
#X obj -1814 851 cnv 15 100 30 empty empty empty 20 12 0 14 -24198
-66577 0;
#X obj -1739 765 cnv 15 65 75 empty empty empty 20 12 0 14 -24198 -66577
0;
#X msg -1856 695 draw line;
#X msg -1856 650 draw fill;
#X msg -1856 672 draw point;
#X obj -1798 596 gemhead;
#X msg -1750 647 1 1 0;
#X msg -1742 667 1 -1 0;
#X floatatom -1730 728 5 0 0 0 - - -;
#X msg -1732 707 -2 1 0;
#X msg -1736 687 -1 -1 -3;
#X msg -1856 715 draw linestrip;
#X msg -1856 735 draw tri;
#X msg -1856 757 draw tristrip;
#X msg -1857 780 draw trifan;
#X msg -1857 801 draw quad;
#X msg -1857 823 draw quadstrip;
#X obj -1798 620 rotateXYZ;
#X floatatom -1740 597 5 0 0 0 - - -;
#X obj -1798 858 curve 5;
#X obj -1727 621 loadbang;
#X floatatom -1736 769 5 0 10 0 - - -;
#X msg -1736 785 width \$1;
#X floatatom -1735 806 5 0 100 0 - - -;
#X msg -1735 823 res \$1;
#X msg -1730 745 \$1 \$1 \$1;
#X floatatom -1904 493 5 0 0 0 - - -;
#X obj -2019 858 cnv 15 100 30 empty empty empty 20 12 0 14 -24198
-66577 0;
#X obj -1944 772 cnv 15 65 75 empty empty empty 20 12 0 14 -24198 -66577
0;
#X msg -2061 702 draw line;
#X msg -2061 657 draw fill;
#X msg -2061 679 draw point;
#X obj -2003 603 gemhead;
#X msg -1955 654 1 1 0;
#X msg -1947 674 1 -1 0;
#X floatatom -1935 735 5 0 0 0 - - -;
#X msg -1937 714 -2 1 0;
#X msg -1941 694 -1 -1 -3;
#X msg -2061 722 draw linestrip;
#X msg -2061 742 draw tri;
#X msg -2061 764 draw tristrip;
#X msg -2062 787 draw trifan;
#X msg -2062 808 draw quad;
#X msg -2062 830 draw quadstrip;
#X obj -2003 627 rotateXYZ;
#X floatatom -1945 604 5 0 0 0 - - -;
#X obj -2003 865 curve 5;
#X obj -1932 628 loadbang;
#X floatatom -1941 776 5 0 10 0 - - -;
#X msg -1941 792 width \$1;
#X floatatom -1940 813 5 0 100 0 - - -;
#X msg -1940 830 res \$1;
#X msg -1935 752 \$1 \$1 \$1;
#X floatatom -1772 489 5 0 0 0 - - -;
#X obj -1561 452 random 5;
#X obj 819 257 metro 1.30656e+06;
#X obj 609 160 metro 1306.56;
#X obj 310 279 metro 1306.56;
#X obj -103 279 metro 1306.56;
#X obj -851 321 metro 130.656;
#X obj -1699 379 metro 130.656;
#X obj -253 368 random 130656;
#X obj -41 365 random 130656;
#X obj 172 363 random 130656;
#X obj 819 282 random 130656;
#X obj 598 278 random 130656;
#X obj 389 360 random 130656;
#X obj -643 380 random 1.30656e+06;
#X obj -448 381 random 1.30656e+06;
#X obj -816 397 random 1.30656e+06;
#X obj -1056 389 random 1.30656e+06;
#X obj -1261 396 random 1.30656e+06;
#X obj -1502 448 random 1.30656e+06;
#X obj -1699 448 random 1.30656e+06;
#X obj -1904 455 random 1.30656e+06;
#X obj -1772 451 random 3;
#X obj -131 363 random 2;
#X obj 281 358 random 4;
#X obj 689 278 random 3;
#X obj 757 275 random 3;
#X floatatom -894 455 5 0 0 0 - - -;
#X obj -894 426 random 5;
#X obj -956 428 random 3;
#X floatatom 975 382 5 0 0 0 - - -;
#X obj 978 763 cnv 15 65 75 empty empty empty 20 12 0 14 -24198 -66577
0;
#X obj 919 594 gemhead;
#X msg 967 645 1 1 0;
#X msg 975 665 1 -1 0;
#X floatatom 987 726 5 0 0 0 - - -;
#X msg 985 705 -2 1 0;
#X msg 981 685 -1 -1 -3;
#X obj 919 618 rotateXYZ;
#X floatatom 977 595 5 0 0 0 - - -;
#X obj 919 856 curve 5;
#X obj 990 619 loadbang;
#X floatatom 981 767 5 0 10 0 - - -;
#X msg 981 783 width \$1;
#X floatatom 982 804 5 0 100 0 - - -;
#X msg 982 821 res \$1;
#X msg 987 743 \$1 \$1 \$1;
#X obj 1071 594 cnv 15 200 295 empty empty empty 20 12 0 14 -228992
-66577 0;
#X obj 1076 648 cnv 15 190 200 empty empty empty 20 12 0 14 -85973
-66577 0;
#X obj 1123 855 cnv 15 100 30 empty empty empty 20 12 0 14 -24198 -66577
0;
#X obj 1198 769 cnv 15 65 75 empty empty empty 20 12 0 14 -24198 -66577
0;
#X msg 1081 699 draw line;
#X msg 1081 654 draw fill;
#X msg 1081 676 draw point;
#X obj 1139 600 gemhead;
#X msg 1187 651 1 1 0;
#X msg 1195 671 1 -1 0;
#X floatatom 1207 732 5 0 0 0 - - -;
#X msg 1205 711 -2 1 0;
#X msg 1201 691 -1 -1 -3;
#X msg 1081 719 draw linestrip;
#X msg 1081 739 draw tri;
#X msg 1081 761 draw tristrip;
#X msg 1080 784 draw trifan;
#X msg 1080 805 draw quad;
#X msg 1080 827 draw quadstrip;
#X obj 1139 624 rotateXYZ;
#X floatatom 1197 601 5 0 0 0 - - -;
#X obj 1139 862 curve 5;
#X obj 1210 625 loadbang;
#X floatatom 1201 773 5 0 10 0 - - -;
#X msg 1201 789 width \$1;
#X floatatom 1202 810 5 0 100 0 - - -;
#X msg 1202 827 res \$1;
#X msg 1207 749 \$1 \$1 \$1;
#X text 1077 575 Linea 3D:;
#X floatatom 1196 386 5 0 0 0 - - -;
#X floatatom 1066 382 5 0 0 0 - - -;
#X floatatom 1134 379 5 0 0 0 - - -;
#X obj 1196 342 random 130656;
#X obj 975 338 random 130656;
#X obj 986 220 metro 130.656;
#X obj 1066 338 random 6;
#X obj 1134 335 random 5;
#X floatatom 1352 379 5 0 0 0 - - -;
#X obj 1355 760 cnv 15 65 75 empty empty empty 20 12 0 14 -24198 -66577
0;
#X obj 1296 591 gemhead;
#X msg 1344 642 1 1 0;
#X msg 1352 662 1 -1 0;
#X floatatom 1364 723 5 0 0 0 - - -;
#X msg 1362 702 -2 1 0;
#X msg 1358 682 -1 -1 -3;
#X obj 1296 615 rotateXYZ;
#X floatatom 1354 592 5 0 0 0 - - -;
#X obj 1296 853 curve 5;
#X obj 1367 616 loadbang;
#X floatatom 1358 764 5 0 10 0 - - -;
#X msg 1358 780 width \$1;
#X floatatom 1359 801 5 0 100 0 - - -;
#X msg 1359 818 res \$1;
#X msg 1364 740 \$1 \$1 \$1;
#X obj 1448 591 cnv 15 200 295 empty empty empty 20 12 0 14 -228992
-66577 0;
#X obj 1453 645 cnv 15 190 200 empty empty empty 20 12 0 14 -85973
-66577 0;
#X obj 1500 852 cnv 15 100 30 empty empty empty 20 12 0 14 -24198 -66577
0;
#X obj 1575 766 cnv 15 65 75 empty empty empty 20 12 0 14 -24198 -66577
0;
#X msg 1458 696 draw line;
#X msg 1458 651 draw fill;
#X msg 1458 673 draw point;
#X obj 1516 597 gemhead;
#X msg 1564 648 1 1 0;
#X msg 1572 668 1 -1 0;
#X floatatom 1584 729 5 0 0 0 - - -;
#X msg 1582 708 -2 1 0;
#X msg 1578 688 -1 -1 -3;
#X msg 1458 716 draw linestrip;
#X msg 1458 736 draw tri;
#X msg 1458 758 draw tristrip;
#X msg 1457 781 draw trifan;
#X msg 1457 802 draw quad;
#X msg 1457 824 draw quadstrip;
#X obj 1516 621 rotateXYZ;
#X floatatom 1574 598 5 0 0 0 - - -;
#X obj 1516 859 curve 5;
#X obj 1587 622 loadbang;
#X floatatom 1578 770 5 0 10 0 - - -;
#X msg 1578 786 width \$1;
#X floatatom 1579 807 5 0 100 0 - - -;
#X msg 1579 824 res \$1;
#X msg 1584 746 \$1 \$1 \$1;
#X text 1454 572 Linea 3D:;
#X floatatom 1573 383 5 0 0 0 - - -;
#X floatatom 1443 379 5 0 0 0 - - -;
#X floatatom 1511 376 5 0 0 0 - - -;
#X obj 1573 339 random 130656;
#X obj 1352 335 random 130656;
#X obj 1443 335 random 3;
#X obj 1363 217 metro 1306.56;
#X obj 1511 332 random 3;
#X floatatom 1739 389 5 0 0 0 - - -;
#X obj 1742 770 cnv 15 65 75 empty empty empty 20 12 0 14 -24198 -66577
0;
#X obj 1683 601 gemhead;
#X msg 1731 652 1 1 0;
#X msg 1739 672 1 -1 0;
#X floatatom 1751 733 5 0 0 0 - - -;
#X msg 1749 712 -2 1 0;
#X msg 1745 692 -1 -1 -3;
#X obj 1683 625 rotateXYZ;
#X floatatom 1741 602 5 0 0 0 - - -;
#X obj 1683 863 curve 5;
#X obj 1754 626 loadbang;
#X floatatom 1745 774 5 0 10 0 - - -;
#X msg 1745 790 width \$1;
#X floatatom 1746 811 5 0 100 0 - - -;
#X msg 1746 828 res \$1;
#X msg 1751 750 \$1 \$1 \$1;
#X obj 1983 506 cnv 15 200 295 empty empty empty 20 12 0 14 -228992
-66577 0;
#X obj 1988 560 cnv 15 190 200 empty empty empty 20 12 0 14 -85973
-66577 0;
#X obj 2035 767 cnv 15 100 30 empty empty empty 20 12 0 14 -24198 -66577
0;
#X obj 2110 681 cnv 15 65 75 empty empty empty 20 12 0 14 -24198 -66577
0;
#X msg 1993 611 draw line;
#X msg 1993 566 draw fill;
#X msg 1993 588 draw point;
#X obj 2051 512 gemhead;
#X msg 2099 563 1 1 0;
#X msg 2107 583 1 -1 0;
#X floatatom 2119 644 5 0 0 0 - - -;
#X msg 2117 623 -2 1 0;
#X msg 2113 603 -1 -1 -3;
#X msg 1993 631 draw linestrip;
#X msg 1993 651 draw tri;
#X msg 1993 673 draw tristrip;
#X msg 1992 696 draw trifan;
#X msg 1992 717 draw quad;
#X msg 1992 739 draw quadstrip;
#X obj 2051 536 rotateXYZ;
#X floatatom 2109 513 5 0 0 0 - - -;
#X obj 2051 774 curve 5;
#X obj 2122 537 loadbang;
#X floatatom 2113 685 5 0 10 0 - - -;
#X msg 2113 701 width \$1;
#X floatatom 2114 722 5 0 100 0 - - -;
#X msg 2114 739 res \$1;
#X msg 2119 661 \$1 \$1 \$1;
#X text 1989 487 Linea 3D:;
#X floatatom 1960 393 5 0 0 0 - - -;
#X floatatom 1830 389 5 0 0 0 - - -;
#X floatatom 1898 386 5 0 0 0 - - -;
#X obj 1960 349 random 130656;
#X obj 1739 345 random 130656;
#X obj 1830 345 random 2;
#X obj 1898 342 random 8;
#X obj 1807 230 metro 130.656;
#N canvas 0 22 450 300 (subpatch) 0;
#X array array1 100 float 3;
#A 0 0 0.000305185 0 -0.000305185 0 0 0.000305185 0 0 -0.000305185
0 0.000305185 0 0 0 0 -0.000305185 0 0 0 0 0 -0.000305185 0 0 0 0 0
0 0 0 0.000305185 0 0 0 0 0 0.000305185 0 0 0 -0.000305185 -0.000305185
0 0.000305185 0 0 0 0 0 0 0 0 0 0 0 0 0 0 0 0 0 0.000305185 0.000305185
-0.000305185 0 0 0 0 0 0 0.000305185 0.000305185 0 0 0.000305185 0.000305185
0 0 0 0 0 0.000305185 0 0 0 0 0 0 -0.000305185 0 0 -0.000305185 0 0
0 0 0 0 0;
#X coords 0 1 99 -1 200 140 1;
#X restore 128 -62 graph;
#X obj 342 -76 metro 160;
#X text 394 36 Miguel Oliveros \, Madrid 2014;
#X connect 0 0 59 0;
#X connect 1 0 2 0;
#X connect 2 0 4 0;
#X connect 2 0 5 0;
#X connect 3 0 618 0;
#X connect 5 0 427 0;
#X connect 5 0 428 0;
#X connect 5 0 429 0;
#X connect 5 0 430 0;
#X connect 5 0 431 0;
#X connect 5 0 432 0;
#X connect 5 0 506 0;
#X connect 5 0 561 0;
#X connect 5 0 616 0;
#X connect 8 0 9 0;
#X connect 9 0 8 0;
#X connect 14 0 31 0;
#X connect 15 0 31 0;
#X connect 16 0 31 0;
#X connect 17 0 29 0;
#X connect 18 0 31 1;
#X connect 19 0 31 2;
#X connect 20 0 37 0;
#X connect 21 0 31 4;
#X connect 22 0 31 3;
#X connect 23 0 31 0;
#X connect 24 0 31 0;
#X connect 25 0 31 0;
#X connect 26 0 31 0;
#X connect 27 0 31 0;
#X connect 28 0 31 0;
#X connect 29 0 31 0;
#X connect 30 0 29 1;
#X connect 30 0 29 3;
#X connect 30 0 29 2;
#X connect 32 0 18 0;
#X connect 33 0 34 0;
#X connect 34 0 31 0;
#X connect 35 0 36 0;
#X connect 36 0 31 0;
#X connect 37 0 31 5;
#X connect 38 0 30 0;
#X connect 43 0 60 0;
#X connect 44 0 60 0;
#X connect 45 0 60 0;
#X connect 46 0 58 0;
#X connect 47 0 60 1;
#X connect 48 0 60 2;
#X connect 49 0 66 0;
#X connect 50 0 60 4;
#X connect 51 0 60 3;
#X connect 52 0 60 0;
#X connect 53 0 60 0;
#X connect 54 0 60 0;
#X connect 55 0 60 0;
#X connect 56 0 60 0;
#X connect 57 0 60 0;
#X connect 58 0 60 0;
#X connect 59 0 58 1;
#X connect 59 0 58 3;
#X connect 59 0 58 2;
#X connect 61 0 47 0;
#X connect 62 0 63 0;
#X connect 63 0 60 0;
#X connect 64 0 65 0;
#X connect 65 0 60 0;
#X connect 66 0 60 5;
#X connect 74 0 91 0;
#X connect 75 0 91 0;
#X connect 76 0 91 0;
#X connect 77 0 89 0;
#X connect 78 0 91 1;
#X connect 79 0 91 2;
#X connect 80 0 97 0;
#X connect 81 0 91 4;
#X connect 82 0 91 3;
#X connect 83 0 91 0;
#X connect 84 0 91 0;
#X connect 85 0 91 0;
#X connect 86 0 91 0;
#X connect 87 0 91 0;
#X connect 88 0 91 0;
#X connect 89 0 91 0;
#X connect 90 0 89 1;
#X connect 90 0 89 3;
#X connect 90 0 89 2;
#X connect 92 0 78 0;
#X connect 93 0 94 0;
#X connect 94 0 91 0;
#X connect 95 0 96 0;
#X connect 96 0 91 0;
#X connect 97 0 91 5;
#X connect 99 0 90 0;
#X connect 104 0 121 0;
#X connect 105 0 121 0;
#X connect 106 0 121 0;
#X connect 107 0 119 0;
#X connect 108 0 121 1;
#X connect 109 0 121 2;
#X connect 110 0 127 0;
#X connect 111 0 121 4;
#X connect 112 0 121 3;
#X connect 113 0 121 0;
#X connect 114 0 121 0;
#X connect 115 0 121 0;
#X connect 116 0 121 0;
#X connect 117 0 121 0;
#X connect 118 0 121 0;
#X connect 119 0 121 0;
#X connect 120 0 119 1;
#X connect 120 0 119 3;
#X connect 120 0 119 2;
#X connect 122 0 108 0;
#X connect 123 0 124 0;
#X connect 124 0 121 0;
#X connect 125 0 126 0;
#X connect 126 0 121 0;
#X connect 127 0 121 5;
#X connect 129 0 120 0;
#X connect 130 0 49 0;
#X connect 130 0 62 0;
#X connect 130 0 64 0;
#X connect 131 0 20 0;
#X connect 131 0 80 0;
#X connect 131 0 93 0;
#X connect 131 0 95 0;
#X connect 131 0 33 0;
#X connect 131 0 35 0;
#X connect 136 0 153 0;
#X connect 137 0 153 0;
#X connect 138 0 153 0;
#X connect 139 0 151 0;
#X connect 140 0 153 1;
#X connect 141 0 153 2;
#X connect 142 0 159 0;
#X connect 143 0 153 4;
#X connect 144 0 153 3;
#X connect 145 0 153 0;
#X connect 146 0 153 0;
#X connect 147 0 153 0;
#X connect 148 0 153 0;
#X connect 149 0 153 0;
#X connect 150 0 153 0;
#X connect 151 0 153 0;
#X connect 152 0 151 1;
#X connect 152 0 151 3;
#X connect 152 0 151 2;
#X connect 154 0 140 0;
#X connect 155 0 156 0;
#X connect 156 0 153 0;
#X connect 157 0 158 0;
#X connect 158 0 153 0;
#X connect 159 0 153 5;
#X connect 162 0 152 0;
#X connect 163 0 217 0;
#X connect 164 0 185 0;
#X connect 169 0 186 0;
#X connect 170 0 186 0;
#X connect 171 0 186 0;
#X connect 172 0 184 0;
#X connect 173 0 186 1;
#X connect 174 0 186 2;
#X connect 175 0 192 0;
#X connect 176 0 186 4;
#X connect 177 0 186 3;
#X connect 178 0 186 0;
#X connect 179 0 186 0;
#X connect 180 0 186 0;
#X connect 181 0 186 0;
#X connect 182 0 186 0;
#X connect 183 0 186 0;
#X connect 184 0 186 0;
#X connect 185 0 184 1;
#X connect 185 0 184 3;
#X connect 185 0 184 2;
#X connect 187 0 173 0;
#X connect 188 0 189 0;
#X connect 189 0 186 0;
#X connect 190 0 191 0;
#X connect 191 0 186 0;
#X connect 192 0 186 5;
#X connect 194 0 110 0;
#X connect 194 0 123 0;
#X connect 194 0 125 0;
#X connect 195 0 142 0;
#X connect 195 0 175 0;
#X connect 195 0 188 0;
#X connect 195 0 190 0;
#X connect 195 0 155 0;
#X connect 195 0 157 0;
#X connect 196 0 207 0;
#X connect 196 0 236 0;
#X connect 196 0 249 0;
#X connect 196 0 251 0;
#X connect 196 0 220 0;
#X connect 196 0 222 0;
#X connect 201 0 218 0;
#X connect 202 0 218 0;
#X connect 203 0 218 0;
#X connect 204 0 216 0;
#X connect 205 0 218 1;
#X connect 206 0 218 2;
#X connect 207 0 224 0;
#X connect 208 0 218 4;
#X connect 209 0 218 3;
#X connect 210 0 218 0;
#X connect 211 0 218 0;
#X connect 212 0 218 0;
#X connect 213 0 218 0;
#X connect 214 0 218 0;
#X connect 215 0 218 0;
#X connect 216 0 218 0;
#X connect 217 0 216 1;
#X connect 217 0 216 3;
#X connect 217 0 216 2;
#X connect 219 0 205 0;
#X connect 220 0 221 0;
#X connect 221 0 218 0;
#X connect 222 0 223 0;
#X connect 223 0 218 0;
#X connect 224 0 218 5;
#X connect 225 0 246 0;
#X connect 230 0 247 0;
#X connect 231 0 247 0;
#X connect 232 0 247 0;
#X connect 233 0 245 0;
#X connect 234 0 247 1;
#X connect 235 0 247 2;
#X connect 236 0 253 0;
#X connect 237 0 247 4;
#X connect 238 0 247 3;
#X connect 239 0 247 0;
#X connect 240 0 247 0;
#X connect 241 0 247 0;
#X connect 242 0 247 0;
#X connect 243 0 247 0;
#X connect 244 0 247 0;
#X connect 245 0 247 0;
#X connect 246 0 245 1;
#X connect 246 0 245 3;
#X connect 246 0 245 2;
#X connect 248 0 234 0;
#X connect 249 0 250 0;
#X connect 250 0 247 0;
#X connect 251 0 252 0;
#X connect 252 0 247 0;
#X connect 253 0 247 5;
#X connect 254 0 276 0;
#X connect 255 0 293 0;
#X connect 255 0 306 0;
#X connect 255 0 308 0;
#X connect 260 0 277 0;
#X connect 261 0 277 0;
#X connect 262 0 277 0;
#X connect 263 0 275 0;
#X connect 264 0 277 1;
#X connect 265 0 277 2;
#X connect 266 0 283 0;
#X connect 267 0 277 4;
#X connect 268 0 277 3;
#X connect 269 0 277 0;
#X connect 270 0 277 0;
#X connect 271 0 277 0;
#X connect 272 0 277 0;
#X connect 273 0 277 0;
#X connect 274 0 277 0;
#X connect 275 0 277 0;
#X connect 276 0 275 1;
#X connect 276 0 275 3;
#X connect 276 0 275 2;
#X connect 278 0 264 0;
#X connect 279 0 280 0;
#X connect 280 0 277 0;
#X connect 281 0 282 0;
#X connect 282 0 277 0;
#X connect 283 0 277 5;
#X connect 284 0 303 0;
#X connect 287 0 304 0;
#X connect 288 0 304 0;
#X connect 289 0 304 0;
#X connect 290 0 302 0;
#X connect 291 0 304 1;
#X connect 292 0 304 2;
#X connect 293 0 310 0;
#X connect 294 0 304 4;
#X connect 295 0 304 3;
#X connect 296 0 304 0;
#X connect 297 0 304 0;
#X connect 298 0 304 0;
#X connect 299 0 304 0;
#X connect 300 0 304 0;
#X connect 301 0 304 0;
#X connect 302 0 304 0;
#X connect 303 0 302 1;
#X connect 303 0 302 3;
#X connect 303 0 302 2;
#X connect 305 0 291 0;
#X connect 306 0 307 0;
#X connect 307 0 304 0;
#X connect 308 0 309 0;
#X connect 309 0 304 0;
#X connect 310 0 304 5;
#X connect 311 0 196 0;
#X connect 312 0 331 0;
#X connect 315 0 332 0;
#X connect 316 0 332 0;
#X connect 317 0 332 0;
#X connect 318 0 330 0;
#X connect 319 0 332 1;
#X connect 320 0 332 2;
#X connect 321 0 338 0;
#X connect 322 0 332 4;
#X connect 323 0 332 3;
#X connect 324 0 332 0;
#X connect 325 0 332 0;
#X connect 326 0 332 0;
#X connect 327 0 332 0;
#X connect 328 0 332 0;
#X connect 329 0 332 0;
#X connect 330 0 332 0;
#X connect 331 0 330 1;
#X connect 331 0 330 3;
#X connect 331 0 330 2;
#X connect 333 0 319 0;
#X connect 334 0 335 0;
#X connect 335 0 332 0;
#X connect 336 0 337 0;
#X connect 337 0 332 0;
#X connect 338 0 332 5;
#X connect 339 0 321 0;
#X connect 339 0 334 0;
#X connect 339 0 336 0;
#X connect 340 0 339 0;
#X connect 341 0 363 0;
#X connect 342 0 353 0;
#X connect 342 0 366 0;
#X connect 342 0 368 0;
#X connect 347 0 364 0;
#X connect 348 0 364 0;
#X connect 349 0 364 0;
#X connect 350 0 362 0;
#X connect 351 0 364 1;
#X connect 352 0 364 2;
#X connect 353 0 370 0;
#X connect 354 0 364 4;
#X connect 355 0 364 3;
#X connect 356 0 364 0;
#X connect 357 0 364 0;
#X connect 358 0 364 0;
#X connect 359 0 364 0;
#X connect 360 0 364 0;
#X connect 361 0 364 0;
#X connect 362 0 364 0;
#X connect 363 0 362 1;
#X connect 363 0 362 3;
#X connect 363 0 362 2;
#X connect 365 0 351 0;
#X connect 366 0 367 0;
#X connect 367 0 364 0;
#X connect 368 0 369 0;
#X connect 369 0 364 0;
#X connect 370 0 364 5;
#X connect 371 0 390 0;
#X connect 374 0 391 0;
#X connect 375 0 391 0;
#X connect 376 0 391 0;
#X connect 377 0 389 0;
#X connect 378 0 391 1;
#X connect 379 0 391 2;
#X connect 380 0 397 0;
#X connect 381 0 391 4;
#X connect 382 0 391 3;
#X connect 383 0 391 0;
#X connect 384 0 391 0;
#X connect 385 0 391 0;
#X connect 386 0 391 0;
#X connect 387 0 391 0;
#X connect 388 0 391 0;
#X connect 389 0 391 0;
#X connect 390 0 389 1;
#X connect 390 0 389 3;
#X connect 390 0 389 2;
#X connect 392 0 378 0;
#X connect 393 0 394 0;
#X connect 394 0 391 0;
#X connect 395 0 396 0;
#X connect 396 0 391 0;
#X connect 397 0 391 5;
#X connect 398 0 417 0;
#X connect 401 0 418 0;
#X connect 402 0 418 0;
#X connect 403 0 418 0;
#X connect 404 0 416 0;
#X connect 405 0 418 1;
#X connect 406 0 418 2;
#X connect 407 0 424 0;
#X connect 408 0 418 4;
#X connect 409 0 418 3;
#X connect 410 0 418 0;
#X connect 411 0 418 0;
#X connect 412 0 418 0;
#X connect 413 0 418 0;
#X connect 414 0 418 0;
#X connect 415 0 418 0;
#X connect 416 0 418 0;
#X connect 417 0 416 1;
#X connect 417 0 416 3;
#X connect 417 0 416 2;
#X connect 419 0 405 0;
#X connect 420 0 421 0;
#X connect 421 0 418 0;
#X connect 422 0 423 0;
#X connect 423 0 418 0;
#X connect 424 0 418 5;
#X connect 425 0 407 0;
#X connect 425 0 420 0;
#X connect 425 0 422 0;
#X connect 425 0 393 0;
#X connect 425 0 380 0;
#X connect 425 0 395 0;
#X connect 426 0 342 0;
#X connect 427 0 436 0;
#X connect 428 0 437 0;
#X connect 428 0 450 0;
#X connect 428 0 451 0;
#X connect 429 0 435 0;
#X connect 429 0 438 0;
#X connect 429 0 449 0;
#X connect 430 0 433 0;
#X connect 430 0 434 0;
#X connect 430 0 448 0;
#X connect 431 0 311 0;
#X connect 431 0 340 0;
#X connect 431 0 439 0;
#X connect 431 0 440 0;
#X connect 431 0 441 0;
#X connect 431 0 442 0;
#X connect 431 0 443 0;
#X connect 431 0 453 0;
#X connect 431 0 454 0;
#X connect 432 0 426 0;
#X connect 432 0 444 0;
#X connect 432 0 445 0;
#X connect 432 0 446 0;
#X connect 432 0 447 0;
#X connect 433 0 164 0;
#X connect 434 0 162 0;
#X connect 435 0 99 0;
#X connect 436 0 129 0;
#X connect 437 0 0 0;
#X connect 438 0 38 0;
#X connect 439 0 225 0;
#X connect 440 0 163 0;
#X connect 441 0 254 0;
#X connect 442 0 284 0;
#X connect 443 0 312 0;
#X connect 444 0 341 0;
#X connect 445 0 371 0;
#X connect 446 0 398 0;
#X connect 447 0 425 0;
#X connect 448 0 195 0;
#X connect 449 0 131 0;
#X connect 450 0 130 0;
#X connect 451 0 194 0;
#X connect 452 0 266 0;
#X connect 452 0 279 0;
#X connect 452 0 281 0;
#X connect 453 0 452 0;
#X connect 454 0 255 0;
#X connect 455 0 464 0;
#X connect 457 0 463 0;
#X connect 458 0 465 1;
#X connect 459 0 465 2;
#X connect 460 0 471 0;
#X connect 461 0 465 4;
#X connect 462 0 465 3;
#X connect 463 0 465 0;
#X connect 464 0 463 1;
#X connect 464 0 463 3;
#X connect 464 0 463 2;
#X connect 466 0 458 0;
#X connect 467 0 468 0;
#X connect 468 0 465 0;
#X connect 469 0 470 0;
#X connect 470 0 465 0;
#X connect 471 0 465 5;
#X connect 476 0 493 0;
#X connect 477 0 493 0;
#X connect 478 0 493 0;
#X connect 479 0 491 0;
#X connect 480 0 493 1;
#X connect 481 0 493 2;
#X connect 482 0 499 0;
#X connect 483 0 493 4;
#X connect 484 0 493 3;
#X connect 485 0 493 0;
#X connect 486 0 493 0;
#X connect 487 0 493 0;
#X connect 488 0 493 0;
#X connect 489 0 493 0;
#X connect 490 0 493 0;
#X connect 491 0 493 0;
#X connect 492 0 491 1;
#X connect 492 0 491 3;
#X connect 492 0 491 2;
#X connect 494 0 480 0;
#X connect 495 0 496 0;
#X connect 496 0 493 0;
#X connect 497 0 498 0;
#X connect 498 0 493 0;
#X connect 499 0 493 5;
#X connect 501 0 492 0;
#X connect 502 0 460 0;
#X connect 502 0 467 0;
#X connect 502 0 469 0;
#X connect 503 0 482 0;
#X connect 503 0 495 0;
#X connect 503 0 497 0;
#X connect 504 0 501 0;
#X connect 505 0 455 0;
#X connect 506 0 505 0;
#X connect 506 0 504 0;
#X connect 506 0 507 0;
#X connect 506 0 508 0;
#X connect 507 0 502 0;
#X connect 508 0 503 0;
#X connect 509 0 518 0;
#X connect 511 0 517 0;
#X connect 512 0 519 1;
#X connect 513 0 519 2;
#X connect 514 0 525 0;
#X connect 515 0 519 4;
#X connect 516 0 519 3;
#X connect 517 0 519 0;
#X connect 518 0 517 1;
#X connect 518 0 517 3;
#X connect 518 0 517 2;
#X connect 520 0 512 0;
#X connect 521 0 522 0;
#X connect 522 0 519 0;
#X connect 523 0 524 0;
#X connect 524 0 519 0;
#X connect 525 0 519 5;
#X connect 530 0 547 0;
#X connect 531 0 547 0;
#X connect 532 0 547 0;
#X connect 533 0 545 0;
#X connect 534 0 547 1;
#X connect 535 0 547 2;
#X connect 536 0 553 0;
#X connect 537 0 547 4;
#X connect 538 0 547 3;
#X connect 539 0 547 0;
#X connect 540 0 547 0;
#X connect 541 0 547 0;
#X connect 542 0 547 0;
#X connect 543 0 547 0;
#X connect 544 0 547 0;
#X connect 545 0 547 0;
#X connect 546 0 545 1;
#X connect 546 0 545 3;
#X connect 546 0 545 2;
#X connect 548 0 534 0;
#X connect 549 0 550 0;
#X connect 550 0 547 0;
#X connect 551 0 552 0;
#X connect 552 0 547 0;
#X connect 553 0 547 5;
#X connect 555 0 546 0;
#X connect 556 0 514 0;
#X connect 556 0 521 0;
#X connect 556 0 523 0;
#X connect 557 0 536 0;
#X connect 557 0 549 0;
#X connect 557 0 551 0;
#X connect 558 0 555 0;
#X connect 559 0 509 0;
#X connect 560 0 556 0;
#X connect 561 0 559 0;
#X connect 561 0 558 0;
#X connect 561 0 560 0;
#X connect 561 0 562 0;
#X connect 562 0 557 0;
#X connect 563 0 572 0;
#X connect 565 0 571 0;
#X connect 566 0 573 1;
#X connect 567 0 573 2;
#X connect 568 0 579 0;
#X connect 569 0 573 4;
#X connect 570 0 573 3;
#X connect 571 0 573 0;
#X connect 572 0 571 1;
#X connect 572 0 571 3;
#X connect 572 0 571 2;
#X connect 574 0 566 0;
#X connect 575 0 576 0;
#X connect 576 0 573 0;
#X connect 577 0 578 0;
#X connect 578 0 573 0;
#X connect 579 0 573 5;
#X connect 584 0 601 0;
#X connect 585 0 601 0;
#X connect 586 0 601 0;
#X connect 587 0 599 0;
#X connect 588 0 601 1;
#X connect 589 0 601 2;
#X connect 590 0 607 0;
#X connect 591 0 601 4;
#X connect 592 0 601 3;
#X connect 593 0 601 0;
#X connect 594 0 601 0;
#X connect 595 0 601 0;
#X connect 596 0 601 0;
#X connect 597 0 601 0;
#X connect 598 0 601 0;
#X connect 599 0 601 0;
#X connect 600 0 599 1;
#X connect 600 0 599 3;
#X connect 600 0 599 2;
#X connect 602 0 588 0;
#X connect 603 0 604 0;
#X connect 604 0 601 0;
#X connect 605 0 606 0;
#X connect 606 0 601 0;
#X connect 607 0 601 5;
#X connect 609 0 600 0;
#X connect 610 0 568 0;
#X connect 610 0 575 0;
#X connect 610 0 577 0;
#X connect 611 0 590 0;
#X connect 611 0 603 0;
#X connect 611 0 605 0;
#X connect 611 0 591 0;
#X connect 611 0 592 0;
#X connect 611 0 589 0;
#X connect 611 0 588 0;
#X connect 611 0 566 0;
#X connect 611 0 567 0;
#X connect 611 0 570 0;
#X connect 611 0 569 0;
#X connect 612 0 609 0;
#X connect 613 0 563 0;
#X connect 614 0 610 0;
#X connect 615 0 611 0;
#X connect 616 0 613 0;
#X connect 616 0 612 0;
#X connect 616 0 614 0;
#X connect 616 0 615 0;
#X connect 618 0 4 0;
#X coords 0 0 2 1 0 0 0;
