#N canvas 850 23 1065 861 10;
#X obj -263 31 tabwrite~ array1;
#X obj -263 -34 bng 15 250 50 0 empty empty empty 17 7 0 10 -262144
-1 -1;
#N canvas 0 22 450 300 (subpatch) 0;
#X array array1 100 float 3;
#A 0 0.00341797 0.00170898 0.00128174 0.000213623 0.000213623 0.000213623
0.000640869 0.00149536 0.00192261 0.000854492 0 -0.000640869 -0.00213623
-0.0027771 -0.00234985 -0.00170898 -0.000640869 -0.000427246 0 0 -0.00192261
-0.00299072 -0.00256348 -0.00234985 -0.00149536 0 0.000854492 0.00170898
0.00128174 0.000854492 0.000640869 -0.00128174 -0.00256348 -0.00405884
-0.00534058 -0.00662231 -0.00769043 -0.0083313 -0.00875854 -0.00918579
-0.00875854 -0.00769043 -0.00640869 -0.0055542 -0.00448608 -0.00320435
-0.00299072 -0.00192261 -0.00106812 -0.000640869 0.000213623 -0.000427246
-0.00213623 -0.00469971 -0.00619507 -0.00662231 -0.00598145 -0.00491333
-0.0027771 0 0.000854492 0.00170898 0.00234985 0.00234985 0.00320435
0.00299072 0.00213623 0.00149536 0.00106812 0.00128174 0.00170898 0.00192261
0.00256348 0.00341797 0.00341797 0.00299072 0.00299072 0.00341797 0.00491333
0.00512695 0.00469971 0.00491333 0.0055542 0.00640869 0.00683594 0.00683594
0.00726318 0.00790405 0.0083313 0.00854492 0.00939941 0.0100403 0.00982666
0.00961304 0.0083313 0.0083313 0.00854492 0.00897217 0.00897217 0.00854492
;
#X coords 0 1 99 -1 200 140 1;
#X restore -194 -138 graph;
#X obj 100 101 cnv 15 100 60 empty empty empty 20 12 0 14 -195568 -66577
0;
#N canvas 0 22 455 304 gemwin 0;
#X obj 132 182 gemwin;
#X obj 67 89 outlet;
#X obj 67 10 inlet;
#X obj 67 41 route create;
#X msg 67 70 set destroy;
#X msg 142 68 set create;
#X msg 198 112 destroy;
#X msg 132 112 create \, 1;
#X obj 294 56 gemhead;
#X obj 294 76 world_light;
#X msg 207 155 lighting 1;
#X obj 207 134 loadbang;
#X connect 2 0 3 0;
#X connect 3 0 4 0;
#X connect 3 0 7 0;
#X connect 3 1 5 0;
#X connect 3 1 6 0;
#X connect 4 0 1 0;
#X connect 5 0 1 0;
#X connect 6 0 0 0;
#X connect 7 0 0 0;
#X connect 8 0 9 0;
#X connect 10 0 0 0;
#X connect 11 0 10 0;
#X restore 115 140 pd gemwin;
#X msg 115 121 create;
#X text 111 100 Create window:;
#X obj -85 298 knob 60 60 0 100 0 0 empty empty empty 0 -8 0 8 -262144
-1 -1 0 1;
#X floatatom -57 368 5 0 0 0 - - -;
#X obj -184 294 knob 60 60 0 100 0 0 empty empty empty 0 -8 0 8 -45076
-1 -1 0 1;
#X floatatom -158 364 5 0 0 0 - - -;
#X obj -286 284 knob 60 60 0 100 0 0 empty empty empty 0 -8 0 8 -258113
-1 -45076 0 1;
#X floatatom -258 354 5 0 0 0 - - -;
#X obj -395 284 knob 60 60 0 100 0 0 empty empty empty 0 -8 0 8 -262144
-1 -1 0 1;
#X floatatom -367 354 5 0 0 0 - - -;
#X obj -492 286 knob 60 60 0 100 0 0 empty empty empty 0 -8 0 8 -45076
-1 -1 0 1;
#X floatatom -467 356 5 0 0 0 - - -;
#X obj -604 282 knob 60 60 0 100 0 0 empty empty empty 0 -8 0 8 -258113
-1 -45076 0 1;
#X floatatom -576 351 5 0 0 0 - - -;
#X obj -495 232 random 100;
#X obj -604 231 random 100;
#X obj -286 234 random 100;
#X obj -395 234 random 100;
#X obj -328 -39 adc~;
#X obj -263 -7 metro 160;
#X text -224 8 160 BPM=2.66666667 BPSEG;
#X obj -604 204 metro 160;
#X obj -495 205 metro 160;
#X obj 152 503 camera;
#X obj 151 387 gemhead;
#X obj 135 428 tgl 15 0 empty empty empty 0 -6 0 8 -262144 -1 -1 0
1;
#X obj 158 409 tgl 15 0 empty empty empty 0 -6 0 8 -262144 -1 -1 0
1;
#X obj 207 454 tgl 15 0 empty empty empty 0 -6 0 8 -262144 -1 -1 0
1;
#X obj 233 432 tgl 15 0 empty empty empty 0 -6 0 8 -262144 -1 -1 0
1;
#X msg 207 470 left \$1;
#X msg 233 448 right \$1;
#X obj 48 466 tgl 15 0 empty empty empty 0 -6 0 8 -262144 -1 -1 0 1
;
#X obj 74 444 tgl 15 0 empty empty empty 0 -6 0 8 -262144 -1 -1 0 1
;
#X msg 74 460 up \$1;
#X msg 48 482 down \$1;
#X msg 240 404 reset;
#X msg 158 426 forward \$1;
#X msg 135 444 reverse \$1;
#X msg 39 598 speed \$1;
#X floatatom 39 580 5 0 0 0 - - -;
#X floatatom 40 541 5 0 0 0 - - -;
#X msg 352 496 lookX \$1;
#X msg 352 533 lookY \$1;
#X msg 352 569 lookZ \$1;
#X floatatom 352 480 5 0 0 0 - - -;
#X floatatom 352 553 5 0 0 0 - - -;
#X floatatom 352 516 5 0 0 0 - - -;
#X msg 40 559 distance \$1;
#X obj 373 277 knob 60 60 0 100 0 0 empty empty empty 0 -8 0 8 -262144
-1 -1 0 1;
#X floatatom 401 347 5 0 0 0 - - -;
#X obj 265 276 knob 60 60 0 100 0 0 empty empty empty 0 -8 0 8 -262144
-1 -1 0 1;
#X floatatom 293 346 5 0 0 0 - - -;
#X obj 181 282 knob 60 60 0 100 0 0 empty empty empty 0 -8 0 8 -262144
-1 -1 0 1;
#X floatatom 209 352 5 0 0 0 - - -;
#X obj 265 199 metro 160;
#X obj 181 205 metro 160;
#X obj 373 200 metro 160;
#X obj 105 289 knob 60 60 0 100 0 0 empty empty empty 0 -8 0 8 -262144
-1 -1 0 1;
#X floatatom 133 359 5 0 0 0 - - -;
#X obj 21 295 knob 60 60 0 100 0 0 empty empty empty 0 -8 0 8 -262144
-1 -1 0 1;
#X floatatom 49 365 5 0 0 0 - - -;
#X obj 105 212 metro 160;
#X obj 21 218 metro 160;
#X obj -196 412 cnv 15 170 250 empty empty empty 20 12 0 14 -228992
-66577 0;
#X obj -131 589 cnv 15 100 60 empty empty empty 20 12 0 14 -195568
-66577 0;
#N canvas 0 22 450 300 gemwin 0;
#X obj 132 136 gemwin;
#X obj 67 89 outlet;
#X obj 67 10 inlet;
#X obj 67 41 route create;
#X msg 67 70 set destroy;
#X msg 142 68 set create;
#X msg 197 134 destroy;
#X msg 132 112 reset \, lighting 1 \, create \, 1;
#X connect 2 0 3 0;
#X connect 3 0 4 0;
#X connect 3 0 7 0;
#X connect 3 1 5 0;
#X connect 3 1 6 0;
#X connect 4 0 1 0;
#X connect 5 0 1 0;
#X connect 6 0 0 0;
#X connect 7 0 0 0;
#X restore -126 628 pd gemwin;
#X msg -126 609 destroy;
#X text -130 588 Create window:;
#X obj -195 453 cnv 15 160 60 empty empty empty 20 12 0 14 -24198 -66577
0;
#X obj -194 419 gemhead;
#X obj -194 528 cube;
#X obj -145 527 gemhead;
#X obj -145 565 world_light;
#X obj -194 491 ambientRGB 0 1 0;
#X floatatom -168 457 3 0 1 0 - - -;
#X floatatom -141 457 3 0 1 0 - - -;
#X floatatom -114 457 3 0 1 0 - - -;
#X floatatom -87 457 3 0 1 0 - - -;
#X floatatom -97 527 5 0 0 0 - - -;
#X obj -145 546 rotate 70 1 0 0;
#X obj -85 221 metro 160;
#X obj -186 213 metro 160;
#X obj -286 207 metro 160;
#X obj -186 240 random 100;
#X obj -84 248 random 100;
#X obj -395 207 metro 160;
#X obj 21 245 random 100;
#X obj 105 239 random 100;
#X obj 181 232 random 100;
#X obj 265 226 random 100;
#X obj 373 227 random 100;
#X msg -342 132 stop;
#X obj -342 92 bng 30 250 50 0 empty empty empty 17 7 0 10 -4034 -1
-1;
#X obj -342 58 threshold~ 1 3000 0.1 1000;
#X obj -328 -10 *~ 7;
#X obj -120 54 fiddle~;
#X floatatom -120 76 5 0 0 0 - - -;
#X obj -120 97 moses 60;
#X obj -75 121 bng 15 250 50 0 empty empty empty 17 7 0 10 -262144
-1 -1;
#X obj -120 122 bng 15 250 50 0 empty empty empty 17 7 0 10 -262144
-1 -1;
#X connect 1 0 24 0;
#X connect 4 0 5 0;
#X connect 5 0 4 0;
#X connect 7 0 8 0;
#X connect 7 0 82 0;
#X connect 9 0 10 0;
#X connect 9 0 81 0;
#X connect 11 0 12 0;
#X connect 11 0 80 0;
#X connect 13 0 14 0;
#X connect 13 0 79 0;
#X connect 15 0 16 0;
#X connect 15 0 83 0;
#X connect 17 0 18 0;
#X connect 17 0 75 1;
#X connect 19 0 15 0;
#X connect 20 0 17 0;
#X connect 21 0 11 0;
#X connect 22 0 13 0;
#X connect 23 0 99 0;
#X connect 23 0 100 0;
#X connect 24 0 0 0;
#X connect 26 0 20 0;
#X connect 27 0 19 0;
#X connect 29 0 28 0;
#X connect 30 0 42 0;
#X connect 31 0 41 0;
#X connect 32 0 34 0;
#X connect 33 0 35 0;
#X connect 34 0 28 0;
#X connect 35 0 28 0;
#X connect 36 0 39 0;
#X connect 37 0 38 0;
#X connect 38 0 28 0;
#X connect 39 0 28 0;
#X connect 40 0 28 0;
#X connect 41 0 28 0;
#X connect 42 0 28 0;
#X connect 43 0 28 0;
#X connect 44 0 43 0;
#X connect 45 0 52 0;
#X connect 46 0 28 0;
#X connect 47 0 28 0;
#X connect 48 0 28 0;
#X connect 49 0 46 0;
#X connect 50 0 48 0;
#X connect 51 0 47 0;
#X connect 52 0 28 0;
#X connect 53 0 54 0;
#X connect 53 0 49 0;
#X connect 55 0 56 0;
#X connect 55 0 51 0;
#X connect 57 0 58 0;
#X connect 57 0 50 0;
#X connect 59 0 94 0;
#X connect 60 0 93 0;
#X connect 61 0 95 0;
#X connect 62 0 63 0;
#X connect 62 0 45 0;
#X connect 64 0 65 0;
#X connect 64 0 44 0;
#X connect 66 0 92 0;
#X connect 67 0 91 0;
#X connect 70 0 71 0;
#X connect 71 0 70 0;
#X connect 74 0 78 0;
#X connect 76 0 84 0;
#X connect 78 0 75 0;
#X connect 79 0 78 1;
#X connect 80 0 78 2;
#X connect 81 0 78 3;
#X connect 82 0 78 4;
#X connect 83 0 84 1;
#X connect 84 0 77 0;
#X connect 85 0 89 0;
#X connect 86 0 88 0;
#X connect 87 0 21 0;
#X connect 88 0 9 0;
#X connect 89 0 7 0;
#X connect 90 0 22 0;
#X connect 91 0 64 0;
#X connect 92 0 62 0;
#X connect 93 0 57 0;
#X connect 94 0 55 0;
#X connect 95 0 53 0;
#X connect 96 0 26 0;
#X connect 96 0 27 0;
#X connect 96 0 90 0;
#X connect 96 0 87 0;
#X connect 96 0 86 0;
#X connect 96 0 85 0;
#X connect 96 0 67 0;
#X connect 96 0 66 0;
#X connect 96 0 60 0;
#X connect 96 0 59 0;
#X connect 96 0 61 0;
#X connect 97 0 96 0;
#X connect 98 0 97 0;
#X connect 99 0 0 0;
#X connect 99 0 98 0;
#X connect 100 0 101 0;
#X connect 101 0 102 0;
#X connect 102 0 104 0;
#X connect 102 1 103 0;
#X connect 103 0 67 0;
#X connect 103 0 66 0;
#X connect 103 0 60 0;
#X connect 103 0 59 0;
#X connect 103 0 61 0;
#X connect 104 0 26 0;
#X connect 104 0 27 0;
#X connect 104 0 90 0;
#X connect 104 0 87 0;
#X connect 104 0 86 0;
#X connect 104 0 85 0;
#X coords 0 -1 1 1 85 60 1 100 100;
