#N canvas 503 23 1408 1031 10;
#X obj 1605 -701 adc~;
#N canvas 0 22 796 453 (subpatch) 0;
#X array array1 100 float 3;
#A 0 0.00976562 0.00915527 0.00976562 0.0109863 0.0100708 0.00915527
0.00946045 0.010376 0.00946045 0.00823975 0.00946045 0.0106812 0.010376
0.0100708 0.00915527 0.0088501 0.00946045 0.0088501 0.00854492 0.00823975
0.0088501 0.00976562 0.00915527 0.00915527 0.00946045 0.0088501 0.00854492
0.00854492 0.0088501 0.00823975 0.00793457 0.00762939 0.00701904 0.00732422
0.00732422 0.00762939 0.00854492 0.00793457 0.00732422 0.00793457 0.00671387
0.00640869 0.00732422 0.00701904 0.00762939 0.00762939 0.00732422 0.00732422
0.00762939 0.00701904 0.00701904 0.00732422 0.00671387 0.00579834 0.00701904
0.00732422 0.00610352 0.00610352 0.00610352 0.00640869 0.00671387 0.00579834
0.00549316 0.00549316 0.00457764 0.00396729 0.00427246 0.00488281 0.00427246
0.00366211 0.00396729 0.00366211 0.00427246 0.00518799 0.00427246 0.00396729
0.00274658 0.00274658 0.00244141 0.00244141 0.00244141 0.00213623 0.00183105
0.0012207 -0.000305176 -0.000305176 0.000915527 0.000305176 -0.000305176
-0.000915527 -0.000915527 -0.000915527 -0.0012207 -0.00183105 -0.0012207
-0.000915527 -0.00152588 -0.000915527 -0.000610352 -0.000915527;
#X coords 0 1 99 -1 200 140 1;
#X restore 1983 -634 graph;
#X obj 1608 -603 tabwrite~ array1;
#X obj 1612 -652 bng 15 250 50 0 empty empty empty 17 7 0 10 -262144
-1 -1;
#X obj 1606 -675 *~ 10;
#X floatatom 711 -369 5 0 0 0 - - -;
#X obj 2537 -689 tgl 25 0 empty empty DSP 3 12 1 9 -24198 -1 -1 0 1
;
#X msg 2537 -626 \; pd dsp \$1;
#X floatatom 2524 -311 6 0 0 0 - - -;
#X floatatom 2536 -332 6 0 0 0 - - -;
#X text 2583 -333 dB;
#X text 2567 -303 dB;
#X text 2621 -520 dB;
#X text 2630 -500 dB;
#X text 2646 -501 peak-level;
#X text 2644 -522 rms-level;
#X text 2600 -332 peak-level;
#X text 2587 -304 rms-level;
#X floatatom 2561 -520 7 -110 20 0 - - -;
#X floatatom 2572 -499 7 -110 20 0 - - -;
#N canvas 236 62 699 530 edit 0;
#X obj 37 222 f;
#X msg 15 201 bang;
#X floatatom 53 200 3 50 88 0 - - -;
#X floatatom 88 222 3 0 37 0 - - -;
#X obj 37 245 pack 0 0;
#X text 115 222 y-label;
#X text 81 200 x-label;
#X obj 292 313 f;
#X msg 270 292 bang;
#X floatatom 308 291 3 -10 10 0 - - -;
#X floatatom 343 313 3 -10 10 0 - - -;
#X obj 292 336 pack 0 0;
#X obj 304 435 f;
#X msg 282 414 bang;
#X floatatom 320 413 3 20 140 0 - - -;
#X floatatom 355 435 3 150 200 0 - - -;
#X obj 304 458 pack 0 0;
#X text 336 291 x-delta;
#X text 370 313 y-delta;
#X text 348 413 x-position;
#X text 382 435 y-position;
#X obj 57 337 f;
#X msg 35 316 bang;
#X floatatom 73 315 3 0 2 0 - - -;
#X floatatom 108 337 3 8 36 0 - - -;
#X obj 57 360 pack 0 0;
#X text 101 315 font;
#X text 137 337 height;
#X floatatom 471 106 1 0 1 0 - - -;
#X msg 52 131 \; foo7_rcv color \$1 \$2;
#X msg 37 270 \; foo7_rcv label_pos \$1 \$2;
#X msg 57 386 \; foo7_rcv label_font \$1 \$2;
#X msg 37 427 \; foo7_rcv label blabla;
#X msg 292 361 \; foo7_rcv delta \$1 \$2;
#X msg 304 483 \; foo7_rcv pos \$1 \$2;
#X msg 469 23 \; foo7_rcv receive foo7a_rcv;
#X msg 469 60 \; foo7a_rcv receive foo7_rcv;
#X text 492 106 display scale;
#X msg 471 132 \; foo7_rcv scale \$1;
#X obj 279 193 f;
#X msg 257 172 bang;
#X floatatom 295 171 3 8 50 0 - - -;
#X floatatom 330 193 3 110 200 0 - - -;
#X obj 279 216 pack 0 0;
#X text 323 171 width;
#X text 357 193 height;
#X msg 279 241 \; foo7_rcv size \$1 \$2;
#X msg 37 463 \; foo7_rcv label vu-meter;
#X obj 52 79 f;
#X msg 29 31 bang;
#X floatatom 68 29 3 0 29 0 - - -;
#X floatatom 103 47 3 0 29 0 - - -;
#X text 96 29 background;
#X text 131 48 label-color;
#X msg 290 25 back;
#X msg 290 49 label;
#X msg 252 25 bang;
#N canvas 15 207 606 448 RGB_____________ 0;
#X obj 97 56 inlet;
#X obj 262 53 inlet;
#X obj 339 55 inlet;
#X obj 405 56 inlet;
#X obj 97 270 bang;
#X msg 77 295 0;
#X msg 104 295 1;
#X obj 146 268 bang;
#X msg 132 295 0;
#X msg 160 295 1;
#X obj 265 313 spigot;
#X obj 312 313 spigot;
#X obj 249 385 outlet;
#X text 93 33 select;
#X text 267 28 red;
#X text 337 30 green;
#X text 409 30 blue;
#X obj 405 102 t b f;
#X obj 339 160 +;
#X obj 339 185 t b f;
#X obj 339 216 +;
#X obj 296 385 outlet;
#X obj 28 180 loadbang;
#X obj 296 361 f;
#X obj 249 361 f;
#X obj 262 79 * -65536;
#X obj 339 80 * -256;
#X obj 405 80 * -1;
#X obj 339 247 - 1;
#X obj 97 135 route back label bang;
#X obj 235 168 t b b b;
#X connect 0 0 29 0;
#X connect 1 0 25 0;
#X connect 2 0 26 0;
#X connect 3 0 27 0;
#X connect 4 0 5 0;
#X connect 4 0 6 0;
#X connect 5 0 11 1;
#X connect 6 0 10 1;
#X connect 7 0 8 0;
#X connect 7 0 9 0;
#X connect 8 0 10 1;
#X connect 9 0 11 1;
#X connect 10 0 24 1;
#X connect 11 0 23 1;
#X connect 17 0 18 0;
#X connect 17 1 18 1;
#X connect 18 0 19 0;
#X connect 19 0 20 0;
#X connect 19 1 20 1;
#X connect 20 0 28 0;
#X connect 22 0 6 0;
#X connect 23 0 21 0;
#X connect 24 0 12 0;
#X connect 25 0 20 0;
#X connect 26 0 18 0;
#X connect 27 0 17 0;
#X connect 28 0 11 0;
#X connect 28 0 10 0;
#X connect 29 0 4 0;
#X connect 29 1 7 0;
#X connect 29 2 30 0;
#X connect 30 0 24 0;
#X connect 30 1 23 0;
#X connect 30 2 28 0;
#X restore 290 86 pd RGB_____________;
#X floatatom 332 55 3 0 255 0 - - -;
#X floatatom 375 55 3 0 255 0 - - -;
#X floatatom 418 56 3 0 255 0 - - -;
#X text 39 3 preset-colors;
#X text 301 0 RGB-colors;
#X text 332 37 red;
#X text 368 36 green;
#X text 416 36 blue;
#X obj 52 104 pack 0 0;
#X connect 0 0 4 0;
#X connect 1 0 0 0;
#X connect 2 0 0 1;
#X connect 3 0 4 1;
#X connect 4 0 30 0;
#X connect 7 0 11 0;
#X connect 8 0 7 0;
#X connect 9 0 7 1;
#X connect 10 0 11 1;
#X connect 11 0 33 0;
#X connect 12 0 16 0;
#X connect 13 0 12 0;
#X connect 14 0 12 1;
#X connect 15 0 16 1;
#X connect 16 0 34 0;
#X connect 21 0 25 0;
#X connect 22 0 21 0;
#X connect 23 0 21 1;
#X connect 24 0 25 1;
#X connect 25 0 31 0;
#X connect 28 0 38 0;
#X connect 39 0 43 0;
#X connect 40 0 39 0;
#X connect 41 0 39 1;
#X connect 42 0 43 1;
#X connect 43 0 46 0;
#X connect 48 0 66 0;
#X connect 49 0 48 0;
#X connect 50 0 48 1;
#X connect 51 0 66 1;
#X connect 54 0 57 0;
#X connect 55 0 57 0;
#X connect 56 0 57 0;
#X connect 57 0 66 0;
#X connect 57 1 66 1;
#X connect 58 0 57 1;
#X connect 59 0 57 2;
#X connect 60 0 57 3;
#X connect 66 0 29 0;
#X restore 2612 -426 pd edit;
#N canvas 147 336 290 254 source 0;
#X obj 40 95 random 102;
#X obj 40 171 - 101;
#X obj 40 205 pack 0 0;
#X obj 40 45 metro 300;
#X obj 40 69 t b b;
#X obj 133 95 random 20;
#X obj 40 117 t f f;
#X obj 91 147 +;
#X obj 91 172 - 101;
#X obj 40 21 inlet;
#X obj 40 230 outlet;
#X connect 0 0 6 0;
#X connect 1 0 2 0;
#X connect 2 0 10 0;
#X connect 3 0 4 0;
#X connect 4 0 0 0;
#X connect 4 1 5 0;
#X connect 5 0 7 1;
#X connect 6 0 1 0;
#X connect 6 1 7 0;
#X connect 7 0 8 0;
#X connect 8 0 2 1;
#X connect 9 0 3 0;
#X restore 2471 -617 pd source;
#X obj 2500 -577 s fff;
#X floatatom 979 -372 5 0 0 0 - - -;
#X floatatom 1198 -362 5 0 0 0 - - -;
#X obj 985 -347 vsl 15 128 0 127 0 0 empty empty empty 0 -9 0 10 -262144
-1 -1 0 1;
#X obj 1534 -337 vsl 15 128 0 127 0 0 empty empty empty 0 -9 0 10 -262144
-1 -1 800 1;
#X obj 1047 -232 hsl 128 15 0 127 0 0 empty empty empty -2 -8 0 10
-262144 -1 -1 0 1;
#X obj 819 -305 hsl 128 15 0 127 0 0 empty empty empty -2 -8 0 10 -262144
-1 -1 0 1;
#X floatatom 1534 -369 5 0 0 0 - - -;
#X obj 2525 -469 vu 15 120 empty empty -1 -8 0 10 -66577 -1 1 0;
#X floatatom 1632 -362 5 0 0 0 - - -;
#X floatatom 1980 -365 5 0 0 0 - - -;
#X floatatom 2254 -371 5 0 0 0 - - -;
#X obj 1980 -329 vsl 15 128 0 127 0 0 empty empty empty 0 -9 0 10 -262144
-1 -1 5300 1;
#X obj 2078 -307 vsl 15 128 0 127 0 0 empty empty empty 0 -9 0 10 -262144
-1 -1 0 1;
#X obj 2251 -164 hsl 128 15 0 127 0 0 empty empty empty -2 -8 0 10
-262144 -1 -1 0 1;
#X obj 1635 -221 hsl 128 15 0 127 0 0 empty empty empty -2 -8 0 10
-262144 -1 -1 4100 1;
#X floatatom 2078 -375 5 0 0 0 - - -;
#X obj 2472 -469 vu 15 120 empty empty -1 -8 0 10 -66577 -1 1 0;
#X floatatom 2471 -313 6 0 0 0 - - -;
#X floatatom 2482 -333 6 0 0 0 - - -;
#X obj 979 -393 random 127;
#X obj 1196 -384 random 127;
#X obj 1534 -391 random 127;
#X text 590 -46 Example:;
#X obj 584 -27 cnv 15 200 295 empty empty empty 20 12 0 14 -228992
-66577 0;
#X obj 589 27 cnv 15 190 200 empty empty empty 20 12 0 14 -85973 -66577
0;
#X obj 636 234 cnv 15 100 30 empty empty empty 20 12 0 14 -24198 -66577
0;
#X obj 711 148 cnv 15 65 75 empty empty empty 20 12 0 14 -24198 -66577
0;
#X msg 594 78 draw line;
#X msg 594 33 draw fill;
#X msg 594 55 draw point;
#X obj 652 -21 gemhead;
#X msg 700 30 1 1 0;
#X msg 708 50 1 -1 0;
#X floatatom 720 111 5 0 0 0 - - -;
#X msg 718 90 -2 1 0;
#X msg 714 70 -1 -1 -3;
#X msg 594 98 draw linestrip;
#X msg 594 118 draw tri;
#X msg 594 140 draw tristrip;
#X msg 593 163 draw trifan;
#X msg 593 184 draw quad;
#X msg 593 206 draw quadstrip;
#X obj 652 3 rotateXYZ;
#X floatatom 710 -20 5 0 0 0 - - -;
#X obj 652 241 curve 5;
#X obj 723 4 loadbang;
#X floatatom 714 152 5 0 10 0 - - -;
#X msg 714 168 width \$1;
#X floatatom 715 189 5 0 100 0 - - -;
#X msg 715 206 res \$1;
#X msg 720 128 \$1 \$1 \$1;
#X obj 2258 -672 cnv 15 100 60 empty empty empty 20 12 0 14 -195568
-66577 0;
#N canvas 0 22 450 300 gemwin 0;
#X obj 132 136 gemwin;
#X obj 67 89 outlet;
#X obj 67 10 inlet;
#X obj 67 41 route create;
#X msg 67 70 set destroy;
#X msg 142 68 set create;
#X msg 132 112 create \, 1;
#X msg 198 112 destroy \, reset;
#X connect 2 0 3 0;
#X connect 3 0 4 0;
#X connect 3 0 6 0;
#X connect 3 1 5 0;
#X connect 3 1 7 0;
#X connect 4 0 1 0;
#X connect 5 0 1 0;
#X connect 6 0 0 0;
#X connect 7 0 0 0;
#X restore 2272 -639 pd gemwin;
#X msg 2291 -664 create;
#X text 2270 -694 Create window:;
#X text 837 -46 Example:;
#X obj 831 -27 cnv 15 200 295 empty empty empty 20 12 0 14 -228992
-66577 0;
#X obj 836 27 cnv 15 190 200 empty empty empty 20 12 0 14 -85973 -66577
0;
#X obj 883 234 cnv 15 100 30 empty empty empty 20 12 0 14 -24198 -66577
0;
#X obj 958 148 cnv 15 65 75 empty empty empty 20 12 0 14 -24198 -66577
0;
#X msg 841 78 draw line;
#X msg 841 33 draw fill;
#X msg 841 55 draw point;
#X obj 899 -21 gemhead;
#X msg 947 30 1 1 0;
#X msg 955 50 1 -1 0;
#X floatatom 967 111 5 0 0 0 - - -;
#X msg 965 90 -2 1 0;
#X msg 961 70 -1 -1 -3;
#X msg 841 98 draw linestrip;
#X msg 841 118 draw tri;
#X msg 841 140 draw tristrip;
#X msg 840 163 draw trifan;
#X msg 840 184 draw quad;
#X msg 840 206 draw quadstrip;
#X obj 899 3 rotateXYZ;
#X floatatom 957 -20 5 0 0 0 - - -;
#X obj 899 241 curve 5;
#X obj 970 4 loadbang;
#X floatatom 961 152 5 0 10 0 - - -;
#X msg 961 168 width \$1;
#X floatatom 962 189 5 0 100 0 - - -;
#X msg 962 206 res \$1;
#X msg 967 128 \$1 \$1 \$1;
#X text 590 -46 Example:;
#X obj 584 -27 cnv 15 200 295 empty empty empty 20 12 0 14 -228992
-66577 0;
#X obj 589 27 cnv 15 190 200 empty empty empty 20 12 0 14 -85973 -66577
0;
#X obj 636 234 cnv 15 100 30 empty empty empty 20 12 0 14 -24198 -66577
0;
#X obj 711 148 cnv 15 65 75 empty empty empty 20 12 0 14 -24198 -66577
0;
#X msg 594 78 draw line;
#X msg 594 33 draw fill;
#X msg 594 55 draw point;
#X obj 652 -21 gemhead;
#X msg 700 30 1 1 0;
#X msg 708 50 1 -1 0;
#X floatatom 720 111 5 0 0 0 - - -;
#X msg 718 90 -2 1 0;
#X msg 714 70 -1 -1 -3;
#X msg 594 98 draw linestrip;
#X msg 594 118 draw tri;
#X msg 594 140 draw tristrip;
#X msg 593 163 draw trifan;
#X msg 593 184 draw quad;
#X msg 593 206 draw quadstrip;
#X obj 652 3 rotateXYZ;
#X floatatom 710 -20 5 0 0 0 - - -;
#X obj 652 241 curve 5;
#X obj 723 4 loadbang;
#X floatatom 714 152 5 0 10 0 - - -;
#X msg 714 168 width \$1;
#X floatatom 715 189 5 0 100 0 - - -;
#X msg 715 206 res \$1;
#X msg 720 128 \$1 \$1 \$1;
#X text 1078 -49 Example:;
#X obj 1072 -30 cnv 15 200 295 empty empty empty 20 12 0 14 -228992
-66577 0;
#X obj 1077 24 cnv 15 190 200 empty empty empty 20 12 0 14 -85973 -66577
0;
#X obj 1124 231 cnv 15 100 30 empty empty empty 20 12 0 14 -24198 -66577
0;
#X obj 1199 145 cnv 15 65 75 empty empty empty 20 12 0 14 -24198 -66577
0;
#X msg 1082 75 draw line;
#X msg 1082 30 draw fill;
#X msg 1082 52 draw point;
#X obj 1140 -24 gemhead;
#X msg 1188 27 1 1 0;
#X msg 1196 47 1 -1 0;
#X floatatom 1208 108 5 0 0 0 - - -;
#X msg 1206 87 -2 1 0;
#X msg 1202 67 -1 -1 -3;
#X msg 1082 95 draw linestrip;
#X msg 1082 115 draw tri;
#X msg 1082 137 draw tristrip;
#X msg 1081 160 draw trifan;
#X msg 1081 181 draw quad;
#X msg 1081 203 draw quadstrip;
#X obj 1140 0 rotateXYZ;
#X floatatom 1198 -23 5 0 0 0 - - -;
#X obj 1140 238 curve 5;
#X obj 1211 1 loadbang;
#X floatatom 1202 149 5 0 10 0 - - -;
#X msg 1202 165 width \$1;
#X floatatom 1203 186 5 0 100 0 - - -;
#X msg 1203 203 res \$1;
#X msg 1208 125 \$1 \$1 \$1;
#X text 1290 -46 Example:;
#X obj 1284 -27 cnv 15 200 295 empty empty empty 20 12 0 14 -228992
-66577 0;
#X obj 1289 27 cnv 15 190 200 empty empty empty 20 12 0 14 -85973 -66577
0;
#X obj 1336 234 cnv 15 100 30 empty empty empty 20 12 0 14 -24198 -66577
0;
#X obj 1411 148 cnv 15 65 75 empty empty empty 20 12 0 14 -24198 -66577
0;
#X msg 1294 78 draw line;
#X msg 1294 33 draw fill;
#X msg 1294 55 draw point;
#X obj 1352 -21 gemhead;
#X msg 1400 30 1 1 0;
#X msg 1408 50 1 -1 0;
#X floatatom 1420 111 5 0 0 0 - - -;
#X msg 1418 90 -2 1 0;
#X msg 1414 70 -1 -1 -3;
#X msg 1294 98 draw linestrip;
#X msg 1294 118 draw tri;
#X msg 1294 140 draw tristrip;
#X msg 1293 163 draw trifan;
#X msg 1293 184 draw quad;
#X msg 1293 206 draw quadstrip;
#X obj 1352 3 rotateXYZ;
#X floatatom 1410 -20 5 0 0 0 - - -;
#X obj 1352 241 curve 5;
#X obj 1423 4 loadbang;
#X floatatom 1414 152 5 0 10 0 - - -;
#X msg 1414 168 width \$1;
#X floatatom 1415 189 5 0 100 0 - - -;
#X msg 1415 206 res \$1;
#X msg 1420 128 \$1 \$1 \$1;
#X text 1512 -49 Example:;
#X obj 1506 -30 cnv 15 200 295 empty empty empty 20 12 0 14 -228992
-66577 0;
#X obj 1511 24 cnv 15 190 200 empty empty empty 20 12 0 14 -85973 -66577
0;
#X obj 1558 231 cnv 15 100 30 empty empty empty 20 12 0 14 -24198 -66577
0;
#X obj 1633 145 cnv 15 65 75 empty empty empty 20 12 0 14 -24198 -66577
0;
#X msg 1516 75 draw line;
#X msg 1516 30 draw fill;
#X msg 1516 52 draw point;
#X obj 1574 -24 gemhead;
#X msg 1622 27 1 1 0;
#X msg 1630 47 1 -1 0;
#X floatatom 1642 108 5 0 0 0 - - -;
#X msg 1640 87 -2 1 0;
#X msg 1636 67 -1 -1 -3;
#X msg 1516 95 draw linestrip;
#X msg 1516 115 draw tri;
#X msg 1516 137 draw tristrip;
#X msg 1515 160 draw trifan;
#X msg 1515 181 draw quad;
#X msg 1515 203 draw quadstrip;
#X obj 1574 0 rotateXYZ;
#X floatatom 1632 -23 5 0 0 0 - - -;
#X obj 1574 238 curve 5;
#X obj 1645 1 loadbang;
#X floatatom 1636 149 5 0 10 0 - - -;
#X msg 1636 165 width \$1;
#X floatatom 1637 186 5 0 100 0 - - -;
#X msg 1637 203 res \$1;
#X msg 1642 125 \$1 \$1 \$1;
#X text 1741 -49 Example:;
#X obj 1735 -30 cnv 15 200 295 empty empty empty 20 12 0 14 -228992
-66577 0;
#X obj 1740 24 cnv 15 190 200 empty empty empty 20 12 0 14 -85973 -66577
0;
#X obj 1787 231 cnv 15 100 30 empty empty empty 20 12 0 14 -24198 -66577
0;
#X obj 1862 145 cnv 15 65 75 empty empty empty 20 12 0 14 -24198 -66577
0;
#X msg 1745 75 draw line;
#X msg 1745 30 draw fill;
#X msg 1745 52 draw point;
#X obj 1803 -24 gemhead;
#X msg 1851 27 1 1 0;
#X msg 1859 47 1 -1 0;
#X floatatom 1871 108 5 0 0 0 - - -;
#X msg 1869 87 -2 1 0;
#X msg 1865 67 -1 -1 -3;
#X msg 1745 95 draw linestrip;
#X msg 1745 115 draw tri;
#X msg 1745 137 draw tristrip;
#X msg 1744 160 draw trifan;
#X msg 1744 181 draw quad;
#X msg 1744 203 draw quadstrip;
#X obj 1803 0 rotateXYZ;
#X floatatom 1861 -23 5 0 0 0 - - -;
#X obj 1803 238 curve 5;
#X obj 1874 1 loadbang;
#X floatatom 1865 149 5 0 10 0 - - -;
#X msg 1865 165 width \$1;
#X floatatom 1866 186 5 0 100 0 - - -;
#X msg 1866 203 res \$1;
#X msg 1871 125 \$1 \$1 \$1;
#X text 1958 -48 Example:;
#X obj 1952 -29 cnv 15 200 295 empty empty empty 20 12 0 14 -228992
-66577 0;
#X obj 1957 25 cnv 15 190 200 empty empty empty 20 12 0 14 -85973 -66577
0;
#X obj 2004 232 cnv 15 100 30 empty empty empty 20 12 0 14 -24198 -66577
0;
#X obj 2079 146 cnv 15 65 75 empty empty empty 20 12 0 14 -24198 -66577
0;
#X msg 1962 76 draw line;
#X msg 1962 31 draw fill;
#X msg 1962 53 draw point;
#X obj 2020 -23 gemhead;
#X msg 2068 28 1 1 0;
#X msg 2076 48 1 -1 0;
#X floatatom 2088 109 5 0 0 0 - - -;
#X msg 2086 88 -2 1 0;
#X msg 2082 68 -1 -1 -3;
#X msg 1962 96 draw linestrip;
#X msg 1962 116 draw tri;
#X msg 1962 138 draw tristrip;
#X msg 1961 161 draw trifan;
#X msg 1961 182 draw quad;
#X msg 1961 204 draw quadstrip;
#X obj 2020 1 rotateXYZ;
#X floatatom 2078 -22 5 0 0 0 - - -;
#X obj 2020 239 curve 5;
#X obj 2091 2 loadbang;
#X floatatom 2082 150 5 0 10 0 - - -;
#X msg 2082 166 width \$1;
#X floatatom 2083 187 5 0 100 0 - - -;
#X msg 2083 204 res \$1;
#X msg 2088 126 \$1 \$1 \$1;
#X text 2176 -47 Example:;
#X obj 2170 -28 cnv 15 200 295 empty empty empty 20 12 0 14 -228992
-66577 0;
#X obj 2175 26 cnv 15 190 200 empty empty empty 20 12 0 14 -85973 -66577
0;
#X obj 2222 233 cnv 15 100 30 empty empty empty 20 12 0 14 -24198 -66577
0;
#X obj 2297 147 cnv 15 65 75 empty empty empty 20 12 0 14 -24198 -66577
0;
#X msg 2180 77 draw line;
#X msg 2180 32 draw fill;
#X msg 2180 54 draw point;
#X obj 2238 -22 gemhead;
#X msg 2286 29 1 1 0;
#X msg 2294 49 1 -1 0;
#X floatatom 2306 110 5 0 0 0 - - -;
#X msg 2304 89 -2 1 0;
#X msg 2300 69 -1 -1 -3;
#X msg 2180 97 draw linestrip;
#X msg 2180 117 draw tri;
#X msg 2180 139 draw tristrip;
#X msg 2179 162 draw trifan;
#X msg 2179 183 draw quad;
#X msg 2179 205 draw quadstrip;
#X obj 2238 2 rotateXYZ;
#X floatatom 2296 -21 5 0 0 0 - - -;
#X obj 2238 240 curve 5;
#X obj 2309 3 loadbang;
#X floatatom 2300 151 5 0 10 0 - - -;
#X msg 2300 167 width \$1;
#X floatatom 2301 188 5 0 100 0 - - -;
#X msg 2301 205 res \$1;
#X msg 2306 127 \$1 \$1 \$1;
#X obj 1632 -386 random 127;
#X obj 1980 -386 random 127;
#X obj 2078 -397 random 127;
#X obj 2288 -399 random 127;
#X text 795 -420 /1000 msec.;
#X obj 1196 -413 metro 9600;
#X obj 711 -419 metro 160;
#X obj 711 -393 random 127;
#X obj 979 -422 metro 160;
#X obj 1534 -419 metro 160;
#X obj 1632 -416 metro 160;
#X obj 1980 -413 metro 160;
#X obj 2078 -425 metro 160;
#X obj 2280 -439 metro 160;
#X obj 1790 -584 bng 30 250 50 0 empty empty empty 17 7 0 10 -4034
-1 -1;
#X msg 1790 -519 stop;
#X obj 1790 -545 metro 45000;
#X obj 1516 -591 fiddle~;
#X floatatom 1516 -569 5 0 0 0 - - -;
#X obj 1516 -548 moses 60;
#X obj 1561 -524 bng 15 250 50 0 empty empty empty 17 7 0 10 -262144
-1 -1;
#X obj 1516 -523 bng 15 250 50 0 empty empty empty 17 7 0 10 -262144
-1 -1;
#X obj 1790 -617 threshold~ 1 3000 0.1 1000;
#X obj 2544 148 camera;
#X obj 2543 32 gemhead;
#X obj 2527 73 tgl 15 0 empty empty empty 0 -6 0 8 -262144 -1 -1 0
1;
#X obj 2550 54 tgl 15 0 empty empty empty 0 -6 0 8 -262144 -1 -1 0
1;
#X obj 2599 99 tgl 15 0 empty empty empty 0 -6 0 8 -262144 -1 -1 0
1;
#X obj 2625 77 tgl 15 0 empty empty empty 0 -6 0 8 -262144 -1 -1 0
1;
#X msg 2599 115 left \$1;
#X msg 2625 93 right \$1;
#X obj 2440 111 tgl 15 0 empty empty empty 0 -6 0 8 -262144 -1 -1 0
1;
#X obj 2466 89 tgl 15 0 empty empty empty 0 -6 0 8 -262144 -1 -1 0
1;
#X msg 2466 105 up \$1;
#X msg 2440 127 down \$1;
#X msg 2632 49 reset;
#X msg 2550 71 forward \$1;
#X msg 2527 89 reverse \$1;
#X msg 2431 243 speed \$1;
#X floatatom 2431 225 5 0 0 0 - - -;
#X floatatom 2432 186 5 0 0 0 - - -;
#X msg 2744 141 lookX \$1;
#X msg 2744 178 lookY \$1;
#X msg 2744 214 lookZ \$1;
#X floatatom 2744 125 5 0 0 0 - - -;
#X floatatom 2744 198 5 0 0 0 - - -;
#X floatatom 2744 161 5 0 0 0 - - -;
#X msg 2432 204 distance \$1;
#X obj 2765 -78 knob 60 60 0 100 0 0 empty empty empty 0 -8 0 8 -262144
-1 -1 0 1;
#X floatatom 2793 -8 5 0 0 0 - - -;
#X obj 2657 -79 knob 60 60 0 100 0 0 empty empty empty 0 -8 0 8 -262144
-1 -1 0 1;
#X floatatom 2685 -9 5 0 0 0 - - -;
#X obj 2573 -73 knob 60 60 0 100 0 0 empty empty empty 0 -8 0 8 -262144
-1 -1 0 1;
#X floatatom 2601 -3 5 0 0 0 - - -;
#X obj 2497 -66 knob 60 60 0 100 0 0 empty empty empty 0 -8 0 8 -262144
-1 -1 0 1;
#X floatatom 2525 4 5 0 0 0 - - -;
#X obj 2413 -60 knob 60 60 0 100 0 0 empty empty empty 0 -8 0 8 -262144
-1 -1 0 1;
#X floatatom 2441 10 5 0 0 0 - - -;
#X obj 2573 -123 random 3;
#X obj 2497 -116 random 3;
#X obj 2413 -110 random 3;
#X obj 2657 -129 random 3;
#X obj 2765 -128 random 3;
#X obj 2765 -155 metro 1600;
#X obj 2496 -143 metro 320;
#X obj 2413 -137 metro 320;
#X obj 2573 -149 metro 320;
#X obj 2657 -157 metro 320;
#X obj 1613 -632 metro 160;
#X text 1745 -676 Miguel Oliveros \, Madrid 2015;
#X connect 0 0 4 0;
#X connect 0 0 327 0;
#X connect 3 0 378 0;
#X connect 4 0 2 0;
#X connect 4 0 332 0;
#X connect 5 0 28 0;
#X connect 5 0 66 0;
#X connect 6 0 7 0;
#X connect 6 0 21 0;
#X connect 6 0 76 0;
#X connect 18 0 30 0;
#X connect 19 0 30 0;
#X connect 21 0 22 0;
#X connect 21 0 30 0;
#X connect 21 0 39 0;
#X connect 23 0 25 0;
#X connect 23 0 99 0;
#X connect 24 0 27 0;
#X connect 24 0 157 0;
#X connect 25 0 87 0;
#X connect 25 0 88 0;
#X connect 25 0 91 0;
#X connect 25 0 90 0;
#X connect 25 0 89 0;
#X connect 25 0 106 0;
#X connect 26 0 186 0;
#X connect 26 0 175 0;
#X connect 26 0 178 0;
#X connect 26 0 177 0;
#X connect 26 0 176 0;
#X connect 26 0 193 0;
#X connect 27 0 164 0;
#X connect 27 0 147 0;
#X connect 28 0 54 0;
#X connect 28 0 55 0;
#X connect 28 0 58 0;
#X connect 28 0 57 0;
#X connect 28 0 56 0;
#X connect 28 0 73 0;
#X connect 29 0 26 0;
#X connect 30 0 9 0;
#X connect 30 0 8 0;
#X connect 31 0 37 0;
#X connect 32 0 34 0;
#X connect 33 0 36 0;
#X connect 34 0 244 0;
#X connect 34 0 233 0;
#X connect 34 0 236 0;
#X connect 34 0 235 0;
#X connect 34 0 234 0;
#X connect 34 0 251 0;
#X connect 35 0 273 0;
#X connect 36 0 302 0;
#X connect 36 0 304 0;
#X connect 37 0 215 0;
#X connect 38 0 35 0;
#X connect 39 0 41 0;
#X connect 39 0 40 0;
#X connect 42 0 23 0;
#X connect 43 0 24 0;
#X connect 44 0 29 0;
#X connect 50 0 67 0;
#X connect 51 0 67 0;
#X connect 52 0 67 0;
#X connect 53 0 65 0;
#X connect 54 0 67 1;
#X connect 55 0 67 2;
#X connect 56 0 73 0;
#X connect 57 0 67 4;
#X connect 58 0 67 3;
#X connect 59 0 67 0;
#X connect 60 0 67 0;
#X connect 61 0 67 0;
#X connect 62 0 67 0;
#X connect 63 0 67 0;
#X connect 64 0 67 0;
#X connect 65 0 67 0;
#X connect 66 0 65 1;
#X connect 66 0 65 3;
#X connect 66 0 65 2;
#X connect 68 0 54 0;
#X connect 69 0 70 0;
#X connect 70 0 67 0;
#X connect 71 0 72 0;
#X connect 72 0 67 0;
#X connect 73 0 67 5;
#X connect 75 0 76 0;
#X connect 76 0 75 0;
#X connect 83 0 100 0;
#X connect 84 0 100 0;
#X connect 85 0 100 0;
#X connect 86 0 98 0;
#X connect 87 0 100 1;
#X connect 88 0 100 2;
#X connect 89 0 106 0;
#X connect 90 0 100 4;
#X connect 91 0 100 3;
#X connect 92 0 100 0;
#X connect 93 0 100 0;
#X connect 94 0 100 0;
#X connect 95 0 100 0;
#X connect 96 0 100 0;
#X connect 97 0 100 0;
#X connect 98 0 100 0;
#X connect 99 0 98 1;
#X connect 99 0 98 3;
#X connect 99 0 98 2;
#X connect 101 0 87 0;
#X connect 102 0 103 0;
#X connect 103 0 100 0;
#X connect 104 0 105 0;
#X connect 105 0 100 0;
#X connect 106 0 100 5;
#X connect 112 0 129 0;
#X connect 113 0 129 0;
#X connect 114 0 129 0;
#X connect 115 0 127 0;
#X connect 116 0 129 1;
#X connect 117 0 129 2;
#X connect 118 0 135 0;
#X connect 119 0 129 4;
#X connect 120 0 129 3;
#X connect 121 0 129 0;
#X connect 122 0 129 0;
#X connect 123 0 129 0;
#X connect 124 0 129 0;
#X connect 125 0 129 0;
#X connect 126 0 129 0;
#X connect 127 0 129 0;
#X connect 128 0 127 1;
#X connect 128 0 127 3;
#X connect 130 0 116 0;
#X connect 131 0 132 0;
#X connect 132 0 129 0;
#X connect 133 0 134 0;
#X connect 134 0 129 0;
#X connect 135 0 129 5;
#X connect 141 0 158 0;
#X connect 142 0 158 0;
#X connect 143 0 158 0;
#X connect 144 0 156 0;
#X connect 145 0 158 1;
#X connect 146 0 158 2;
#X connect 147 0 164 0;
#X connect 148 0 158 4;
#X connect 149 0 158 3;
#X connect 150 0 158 0;
#X connect 151 0 158 0;
#X connect 152 0 158 0;
#X connect 153 0 158 0;
#X connect 154 0 158 0;
#X connect 155 0 158 0;
#X connect 156 0 158 0;
#X connect 157 0 156 1;
#X connect 157 0 156 3;
#X connect 157 0 156 2;
#X connect 159 0 145 0;
#X connect 160 0 161 0;
#X connect 161 0 158 0;
#X connect 162 0 163 0;
#X connect 163 0 158 0;
#X connect 164 0 158 5;
#X connect 170 0 187 0;
#X connect 171 0 187 0;
#X connect 172 0 187 0;
#X connect 173 0 185 0;
#X connect 174 0 187 1;
#X connect 175 0 187 2;
#X connect 176 0 193 0;
#X connect 177 0 187 4;
#X connect 178 0 187 3;
#X connect 179 0 187 0;
#X connect 180 0 187 0;
#X connect 181 0 187 0;
#X connect 182 0 187 0;
#X connect 183 0 187 0;
#X connect 184 0 187 0;
#X connect 185 0 187 0;
#X connect 186 0 185 1;
#X connect 186 0 185 3;
#X connect 186 0 185 2;
#X connect 188 0 174 0;
#X connect 189 0 190 0;
#X connect 190 0 187 0;
#X connect 191 0 192 0;
#X connect 192 0 187 0;
#X connect 193 0 187 5;
#X connect 199 0 216 0;
#X connect 200 0 216 0;
#X connect 201 0 216 0;
#X connect 202 0 214 0;
#X connect 203 0 216 1;
#X connect 204 0 216 2;
#X connect 205 0 222 0;
#X connect 206 0 216 4;
#X connect 207 0 216 3;
#X connect 208 0 216 0;
#X connect 209 0 216 0;
#X connect 210 0 216 0;
#X connect 211 0 216 0;
#X connect 212 0 216 0;
#X connect 213 0 216 0;
#X connect 214 0 216 0;
#X connect 215 0 214 1;
#X connect 215 0 214 3;
#X connect 215 0 214 2;
#X connect 217 0 203 0;
#X connect 218 0 219 0;
#X connect 219 0 216 0;
#X connect 220 0 221 0;
#X connect 221 0 216 0;
#X connect 222 0 216 5;
#X connect 228 0 245 0;
#X connect 229 0 245 0;
#X connect 230 0 245 0;
#X connect 231 0 243 0;
#X connect 232 0 245 1;
#X connect 233 0 245 2;
#X connect 234 0 251 0;
#X connect 235 0 245 4;
#X connect 236 0 245 3;
#X connect 237 0 245 0;
#X connect 238 0 245 0;
#X connect 239 0 245 0;
#X connect 240 0 245 0;
#X connect 241 0 245 0;
#X connect 242 0 245 0;
#X connect 243 0 245 0;
#X connect 244 0 243 1;
#X connect 244 0 243 3;
#X connect 244 0 243 2;
#X connect 246 0 232 0;
#X connect 247 0 248 0;
#X connect 248 0 245 0;
#X connect 249 0 250 0;
#X connect 250 0 245 0;
#X connect 251 0 245 5;
#X connect 257 0 274 0;
#X connect 258 0 274 0;
#X connect 259 0 274 0;
#X connect 260 0 272 0;
#X connect 261 0 274 1;
#X connect 262 0 274 2;
#X connect 263 0 280 0;
#X connect 264 0 274 4;
#X connect 265 0 274 3;
#X connect 266 0 274 0;
#X connect 267 0 274 0;
#X connect 268 0 274 0;
#X connect 269 0 274 0;
#X connect 270 0 274 0;
#X connect 271 0 274 0;
#X connect 272 0 274 0;
#X connect 273 0 272 1;
#X connect 273 0 272 3;
#X connect 273 0 272 2;
#X connect 275 0 261 0;
#X connect 276 0 277 0;
#X connect 277 0 274 0;
#X connect 278 0 279 0;
#X connect 279 0 274 0;
#X connect 280 0 274 5;
#X connect 286 0 303 0;
#X connect 287 0 303 0;
#X connect 288 0 303 0;
#X connect 289 0 301 0;
#X connect 290 0 303 1;
#X connect 291 0 303 2;
#X connect 292 0 309 0;
#X connect 293 0 303 4;
#X connect 294 0 303 3;
#X connect 295 0 303 0;
#X connect 296 0 303 0;
#X connect 297 0 303 0;
#X connect 298 0 303 0;
#X connect 299 0 303 0;
#X connect 300 0 303 0;
#X connect 301 0 303 0;
#X connect 302 0 301 1;
#X connect 302 0 301 3;
#X connect 302 0 301 2;
#X connect 304 0 290 0;
#X connect 305 0 306 0;
#X connect 306 0 303 0;
#X connect 307 0 308 0;
#X connect 308 0 303 0;
#X connect 309 0 303 5;
#X connect 310 0 31 0;
#X connect 311 0 32 0;
#X connect 312 0 38 0;
#X connect 313 0 33 0;
#X connect 315 0 43 0;
#X connect 316 0 317 0;
#X connect 317 0 5 0;
#X connect 318 0 42 0;
#X connect 319 0 44 0;
#X connect 320 0 310 0;
#X connect 321 0 311 0;
#X connect 322 0 312 0;
#X connect 323 0 313 0;
#X connect 324 0 326 0;
#X connect 325 0 323 0;
#X connect 325 0 322 0;
#X connect 325 0 321 0;
#X connect 325 0 320 0;
#X connect 325 0 319 0;
#X connect 325 0 315 0;
#X connect 325 0 318 0;
#X connect 325 0 316 0;
#X connect 325 0 375 0;
#X connect 325 0 374 0;
#X connect 325 0 376 0;
#X connect 325 0 377 0;
#X connect 325 0 373 0;
#X connect 326 0 325 0;
#X connect 327 0 328 0;
#X connect 328 0 329 0;
#X connect 329 0 331 0;
#X connect 329 1 330 0;
#X connect 330 0 323 0;
#X connect 330 0 321 0;
#X connect 330 0 319 0;
#X connect 330 0 318 0;
#X connect 330 0 374 0;
#X connect 330 0 377 0;
#X connect 331 0 316 0;
#X connect 331 0 315 0;
#X connect 331 0 320 0;
#X connect 331 0 322 0;
#X connect 331 0 375 0;
#X connect 331 0 376 0;
#X connect 331 0 373 0;
#X connect 332 0 324 0;
#X connect 334 0 333 0;
#X connect 335 0 347 0;
#X connect 336 0 346 0;
#X connect 337 0 339 0;
#X connect 338 0 340 0;
#X connect 339 0 333 0;
#X connect 340 0 333 0;
#X connect 341 0 344 0;
#X connect 342 0 343 0;
#X connect 343 0 333 0;
#X connect 344 0 333 0;
#X connect 345 0 333 0;
#X connect 346 0 333 0;
#X connect 347 0 333 0;
#X connect 348 0 333 0;
#X connect 349 0 348 0;
#X connect 350 0 357 0;
#X connect 351 0 333 0;
#X connect 352 0 333 0;
#X connect 353 0 333 0;
#X connect 354 0 351 0;
#X connect 355 0 353 0;
#X connect 356 0 352 0;
#X connect 357 0 333 0;
#X connect 358 0 359 0;
#X connect 358 0 354 0;
#X connect 360 0 361 0;
#X connect 360 0 356 0;
#X connect 362 0 363 0;
#X connect 362 0 355 0;
#X connect 364 0 365 0;
#X connect 364 0 350 0;
#X connect 366 0 367 0;
#X connect 366 0 349 0;
#X connect 368 0 362 0;
#X connect 369 0 364 0;
#X connect 370 0 366 0;
#X connect 371 0 360 0;
#X connect 372 0 358 0;
#X connect 373 0 372 0;
#X connect 374 0 369 0;
#X connect 375 0 370 0;
#X connect 376 0 368 0;
#X connect 377 0 371 0;
#X connect 378 0 2 0;
